<svg width="50" height="50" viewBox="0 0 50 50" fill="none" xmlns="http://www.w3.org/2000/svg">
<path d="M27.1818 17.3636V13H25H22.8182V17.3636H25H27.1818Z" fill="white"/>
<path d="M27.1818 37V21.7273H25H22.8182V37H25H27.1818Z" fill="white"/>
<path d="M25 1C5.8 1 1 17 1 25C1 44.2 17 49 25 49M25 1C33 1 49 5.8 49 25C49 33 44.2 49 25 49M25 1V13M25 49V37M25 13H22.8182V17.3636H25M25 13H27.1818V17.3636H25M25 17.3636V21.7273M25 21.7273H22.8182V37H25M25 21.7273H27.1818V37H25" stroke="white" stroke-width="0.3"/>
<path d="M25 49C44.2 49 49 33 49 25C49 5.8 33 1 25 1V13H27.1818V17.3636H25V21.7273H27.1818V37H25V49Z" fill="#9F9F9F"/>
<path d="M25 1C5.8 1 1 17 1 25C1 44.2 17 49 25 49M25 1C33 1 49 5.8 49 25C49 33 44.2 49 25 49M25 1V13M25 49V37M25 13H22.8182V17.3636H25M25 13H27.1818V17.3636H25M25 17.3636V21.7273M25 21.7273H22.8182V37H25M25 21.7273H27.1818V37H25" stroke="white" stroke-width="0.3"/>
<path d="M25 1C5.8 1 1 17 1 25C1 44.2 17 49 25 49V37H22.8182V21.7273H25V17.3636H22.8182V13H25V1Z" fill="#FDC23E"/>
<path d="M25 1C5.8 1 1 17 1 25C1 44.2 17 49 25 49M25 1C33 1 49 5.8 49 25C49 33 44.2 49 25 49M25 1V13M25 49V37M25 13H22.8182V17.3636H25M25 13H27.1818V17.3636H25M25 17.3636V21.7273M25 21.7273H22.8182V37H25M25 21.7273H27.1818V37H25" stroke="white" stroke-width="0.3"/>
</svg>
