<svg width="48" height="48" viewBox="0 0 48 48" fill="none" xmlns="http://www.w3.org/2000/svg">
<path d="M16 35V41H32V35H16Z" fill="#FDC23E"/>
<path d="M16 27H32V33H16V27Z" fill="#FDC23E"/>
<path fill-rule="evenodd" clip-rule="evenodd" d="M14 6C11.6 6 11 8 11 9V43C11 45.4 13 46 14 46H34C36.4 46 37 44 37 43V9C37 6.6 35 6 34 6H30V2H18V6H14ZM15 42V10H33V42H15Z" fill="white"/>
<path d="M16 19H32V25H16V19Z" fill="#FDC23E"/>
<path d="M30 6H29.9V6.1H30V6ZM30 2H30.1V1.9H30V2ZM18 2V1.9H17.9V2H18ZM18 6V6.1H18.1V6H18ZM15 10V9.9H14.9V10H15ZM15 42H14.9V42.1H15V42ZM33 42V42.1H33.1V42H33ZM33 10H33.1V9.9H33V10ZM16 11V10.9H15.9V11H16ZM16 17H15.9V17.1H16V17ZM32 17V17.1H32.1V17H32ZM32 11H32.1V10.9H32V11ZM16 19V18.9H15.9V19H16ZM32 19H32.1V18.9H32V19ZM32 25V25.1H32.1V25H32ZM16 25H15.9V25.1H16V25ZM16 27V26.9H15.9V27H16ZM32 27H32.1V26.9H32V27ZM32 33V33.1H32.1V33H32ZM16 33H15.9V33.1H16V33ZM16 35V34.9H15.9V35H16ZM16 41H15.9V41.1H16V41ZM32 41V41.1H32.1V41H32ZM32 35H32.1V34.9H32V35ZM14 5.9C12.7674 5.9 11.9874 6.41582 11.5188 7.06657C11.054 7.71222 10.9 8.484 10.9 9H11.1C11.1 8.516 11.246 7.78778 11.6812 7.18343C12.1126 6.58418 12.8326 6.1 14 6.1V5.9ZM10.9 9V43H11.1V9H10.9ZM10.9 43C10.9 44.2326 11.4158 45.0126 12.0666 45.4812C12.7122 45.946 13.484 46.1 14 46.1V45.9C13.516 45.9 12.7878 45.754 12.1834 45.3188C11.5842 44.8874 11.1 44.1674 11.1 43H10.9ZM14 46.1H34V45.9H14V46.1ZM34 46.1C35.2326 46.1 36.0126 45.5842 36.4812 44.9334C36.946 44.2878 37.1 43.516 37.1 43H36.9C36.9 43.484 36.754 44.2122 36.3188 44.8166C35.8874 45.4158 35.1674 45.9 34 45.9V46.1ZM37.1 43V9H36.9V43H37.1ZM37.1 9C37.1 7.76741 36.5842 6.98739 35.9334 6.51885C35.2878 6.05398 34.516 5.9 34 5.9V6.1C34.484 6.1 35.2122 6.24602 35.8166 6.68115C36.4158 7.11261 36.9 7.83259 36.9 9H37.1ZM34 5.9H30V6.1H34V5.9ZM30.1 6V2H29.9V6H30.1ZM30 1.9H18V2.1H30V1.9ZM17.9 2V6H18.1V2H17.9ZM18 5.9H14V6.1H18V5.9ZM14.9 10V42H15.1V10H14.9ZM15 42.1H33V41.9H15V42.1ZM33.1 42V10H32.9V42H33.1ZM33 9.9H15V10.1H33V9.9ZM15.9 11V17H16.1V11H15.9ZM16 17.1H32V16.9H16V17.1ZM32.1 17V11H31.9V17H32.1ZM32 10.9H16V11.1H32V10.9ZM16 19.1H32V18.9H16V19.1ZM31.9 19V25H32.1V19H31.9ZM32 24.9H16V25.1H32V24.9ZM16.1 25V19H15.9V25H16.1ZM16 27.1H32V26.9H16V27.1ZM31.9 27V33H32.1V27H31.9ZM32 32.9H16V33.1H32V32.9ZM16.1 33V27H15.9V33H16.1ZM15.9 35V41H16.1V35H15.9ZM16 41.1H32V40.9H16V41.1ZM32.1 41V35H31.9V41H32.1ZM32 34.9H16V35.1H32V34.9Z" fill="white"/>
</svg>
