<svg width="50" height="50" viewBox="0 0 50 50" fill="none" xmlns="http://www.w3.org/2000/svg">
<path d="M16.2727 16.2727C16.2727 23.2545 22.0909 25 25 25C31.9818 25 33.7273 19.1818 33.7273 16.2727C33.7273 16.0949 33.7235 15.9204 33.7161 15.7493C33.6091 13.2774 32.7443 11.5025 31.5566 10.2507C29.5991 8.18757 26.7645 7.54545 25 7.54545C21.8557 7.54545 19.7735 8.72548 18.4344 10.2884C16.9809 11.9848 16.403 14.1324 16.2929 15.7116C16.2792 15.9081 16.2727 16.0958 16.2727 16.2727Z" fill="white"/>
<path d="M25 7.54545C26.7645 7.54545 29.5991 8.18757 31.5566 10.2507C32.7443 11.5025 33.6091 13.2774 33.7161 15.7493C33.7235 15.9204 33.7273 16.0949 33.7273 16.2727C33.7273 19.1818 31.9818 25 25 25M25 7.54545C21.8557 7.54545 19.7735 8.72548 18.4344 10.2884C16.9809 11.9848 16.403 14.1324 16.2929 15.7116C16.2792 15.9081 16.2727 16.0958 16.2727 16.2727C16.2727 23.2545 22.0909 25 25 25M25 7.54545V1M25 25V29.3636M25 29.3636C20.2232 29.3636 16.5359 30.5741 13.717 32.4428C11.3956 33.9818 9.66318 35.9673 8.39651 38.0909V41.3636H18.3819H24.9887M25 29.3636C29.7276 29.3636 33.3881 30.5492 36.1956 32.3853C38.4374 33.8513 40.1354 35.732 41.3985 37.755C41.4681 37.8665 41.5365 37.9785 41.6035 38.0909V41.3372L31.5955 41.3636H24.9887M44.6364 49C44.6364 48.691 44.6276 48.3674 44.6093 48.0312M44.6093 48.0312C48.0234 46.2524 49 42.4487 49 40.2727V9.72727C49 2.74545 43.1818 1 40.2727 1H25M44.6093 48.0312C43.4591 48.6305 42.0322 49 40.2727 49H25M25 1H9.72727C2.74545 1 1 6.81818 1 9.72727V40.2727C1 44.4603 3.09304 46.7642 5.39607 47.9375C6.93279 48.7204 8.56301 49 9.72727 49H25M24.9887 41.3636L25 49" stroke="white" stroke-width="0.2"/>
<path d="M33.7273 16.2727C33.7273 19.1818 31.9818 25 25 25V29.3636C29.7276 29.3636 33.3881 30.5492 36.1956 32.3853C38.4374 33.8513 40.1354 35.732 41.3985 37.755C41.4681 37.8665 41.5365 37.9785 41.6035 38.0909V41.3372L31.5955 41.3636H24.9887L25 49H40.2727C42.0322 49 43.4591 48.6305 44.6093 48.0312C48.0234 46.2524 49 42.4487 49 40.2727V9.72727C49 2.74545 43.1818 1 40.2727 1H25V7.54545C26.7645 7.54545 29.5991 8.18757 31.5566 10.2507C32.7443 11.5025 33.6091 13.2774 33.7161 15.7493C33.7235 15.9204 33.7273 16.0949 33.7273 16.2727Z" fill="#9F9F9F"/>
<path d="M25 7.54545C26.7645 7.54545 29.5991 8.18757 31.5566 10.2507C32.7443 11.5025 33.6091 13.2774 33.7161 15.7493C33.7235 15.9204 33.7273 16.0949 33.7273 16.2727C33.7273 19.1818 31.9818 25 25 25M25 7.54545C21.8557 7.54545 19.7735 8.72548 18.4344 10.2884C16.9809 11.9848 16.403 14.1324 16.2929 15.7116C16.2792 15.9081 16.2727 16.0958 16.2727 16.2727C16.2727 23.2545 22.0909 25 25 25M25 7.54545V1M25 25V29.3636M25 29.3636C20.2232 29.3636 16.5359 30.574 13.717 32.4428C11.3956 33.9818 9.66318 35.9673 8.39651 38.0909V41.3636H18.3819H24.9887M25 29.3636C29.7276 29.3636 33.3881 30.5492 36.1956 32.3853C38.4374 33.8513 40.1354 35.732 41.3985 37.755C41.4681 37.8665 41.5365 37.9785 41.6035 38.0909V41.3372L31.5955 41.3636H24.9887M25 1H9.72727C2.74545 1 1 6.81818 1 9.72727V40.2727C1 44.4603 3.09304 46.7642 5.39607 47.9375C6.93279 48.7204 8.56301 49 9.72727 49H25M25 1H40.2727C43.1818 1 49 2.74545 49 9.72727V40.2727C49 42.4487 48.0234 46.2524 44.6093 48.0312C43.4591 48.6305 42.0322 49 40.2727 49H25M24.9887 41.3636L25 49" stroke="white" stroke-width="0.2"/>
<path d="M9.72727 1C2.74545 1 1 6.81818 1 9.72727V40.2727C1 44.4603 3.09304 46.7642 5.39607 47.9375C6.93279 48.7204 8.56301 49 9.72727 49H25L24.9887 41.3636H18.3819H8.39651V38.0909C9.66318 35.9673 11.3956 33.9818 13.717 32.4428C16.5359 30.5741 20.2232 29.3636 25 29.3636V25C22.0909 25 16.2727 23.2545 16.2727 16.2727C16.2727 16.0958 16.2792 15.9081 16.2929 15.7116C16.403 14.1324 16.9809 11.9848 18.4344 10.2884C19.7735 8.72548 21.8557 7.54545 25 7.54545V1H9.72727Z" fill="#FDC23E"/>
<path d="M25 7.54545C26.7645 7.54545 29.5991 8.18757 31.5566 10.2507C32.7443 11.5025 33.6091 13.2774 33.7161 15.7493C33.7235 15.9204 33.7273 16.0949 33.7273 16.2727C33.7273 19.1818 31.9818 25 25 25M25 7.54545C21.8557 7.54545 19.7735 8.72548 18.4344 10.2884C16.9809 11.9848 16.403 14.1324 16.2929 15.7116C16.2792 15.9081 16.2727 16.0958 16.2727 16.2727C16.2727 23.2545 22.0909 25 25 25M25 7.54545V1M25 25V29.3636M25 29.3636C20.2232 29.3636 16.5359 30.5741 13.717 32.4428C11.3956 33.9818 9.66318 35.9673 8.39651 38.0909V41.3636H18.3819H24.9887M25 29.3636C29.7276 29.3636 33.3881 30.5492 36.1956 32.3853C38.4374 33.8513 40.1354 35.732 41.3985 37.755C41.4681 37.8665 41.5365 37.9785 41.6035 38.0909V41.3372L31.5955 41.3636H24.9887M25 1H9.72727C2.74545 1 1 6.81818 1 9.72727V40.2727C1 44.4603 3.09304 46.7642 5.39607 47.9375C6.93279 48.7204 8.56301 49 9.72727 49H25M25 1H40.2727C43.1818 1 49 2.74545 49 9.72727V40.2727C49 42.4487 48.0234 46.2524 44.6093 48.0312C43.4591 48.6305 42.0322 49 40.2727 49H25M24.9887 41.3636L25 49" stroke="white" stroke-width="0.2"/>
<path d="M18.4545 40.2727C18.4545 39.4796 18.3795 38.754 18.2421 38.0909H8.39651V41.3636H18.3819C18.432 40.971 18.4545 40.6031 18.4545 40.2727Z" fill="white"/>
<path d="M25 29.2946C17.0152 29.2946 11.071 33.6896 8.5 38V41.5H41.5V38C38.929 33.6896 32.9848 29.2946 25 29.2946Z" fill="white"/>
<path d="M25 8C18.6 8 17 13.3333 17 16C17 22.4 22.3333 24 25 24C31.4 24 33 18.6667 33 16C33 9.6 27.6667 8 25 8Z" fill="white"/>
<path d="M25 29.2946C17.0152 29.2946 11.071 33.6896 8.5 38V41.5H41.5V38C38.929 33.6896 32.9848 29.2946 25 29.2946Z" stroke="white" stroke-width="0.2"/>
<path d="M25 8C18.6 8 17 13.3333 17 16C17 22.4 22.3333 24 25 24C31.4 24 33 18.6667 33 16C33 9.6 27.6667 8 25 8Z" stroke="white" stroke-width="0.2"/>
</svg>
