<svg width="18" height="19" viewBox="0 0 18 19" fill="none" xmlns="http://www.w3.org/2000/svg">
<path d="M3 14.5C3 12.5 7 11.4 9 11.4C11 11.4 15 12.5 15 14.5V15.5H3V14.5ZM12 6.5C12 7.29565 11.6839 8.05871 11.1213 8.62132C10.5587 9.18393 9.79565 9.5 9 9.5C8.20435 9.5 7.44129 9.18393 6.87868 8.62132C6.31607 8.05871 6 7.29565 6 6.5C6 5.70435 6.31607 4.94129 6.87868 4.37868C7.44129 3.81607 8.20435 3.5 9 3.5C9.79565 3.5 10.5587 3.81607 11.1213 4.37868C11.6839 4.94129 12 5.70435 12 6.5ZM0 2.5V16.5C0 17.0304 0.210714 17.5391 0.585786 17.9142C0.960859 18.2893 1.46957 18.5 2 18.5H16C16.5304 18.5 17.0391 18.2893 17.4142 17.9142C17.7893 17.5391 18 17.0304 18 16.5V2.5C18 1.96957 17.7893 1.46086 17.4142 1.08579C17.0391 0.710714 16.5304 0.5 16 0.5H2C0.89 0.5 0 1.4 0 2.5Z" fill="#9F9F9F"/>
</svg>
