<svg width="48" height="48" viewBox="0 0 48 48" fill="none" xmlns="http://www.w3.org/2000/svg">
<path d="M24 2C21.1109 2 18.2501 2.56992 15.581 3.67722C12.9118 4.78452 10.4865 6.40752 8.44365 8.45354C4.31785 12.5857 2 18.1901 2 24.0338C2 33.7727 8.314 42.0354 17.048 44.9659C18.148 45.1421 18.5 44.4591 18.5 43.8642C18.5 43.3574 18.5 41.9693 18.5 40.1405C12.406 41.4625 11.108 37.1879 11.108 37.1879C10.096 34.632 8.666 33.949 8.666 33.949C6.664 32.5829 8.82 32.627 8.82 32.627C11.02 32.7812 12.186 34.8964 12.186 34.8964C14.1 38.2456 17.334 37.254 18.588 36.7252C18.786 35.293 19.358 34.3236 19.974 33.7727C15.09 33.2219 9.964 31.327 9.964 22.9321C9.964 20.4863 10.8 18.5253 12.23 16.9609C12.01 16.4101 11.24 14.1186 12.45 11.144C12.45 11.144 14.298 10.5491 18.5 13.3915C20.238 12.9067 22.13 12.6643 24 12.6643C25.87 12.6643 27.762 12.9067 29.5 13.3915C33.702 10.5491 35.55 11.144 35.55 11.144C36.76 14.1186 35.99 16.4101 35.77 16.9609C37.2 18.5253 38.036 20.4863 38.036 22.9321C38.036 31.349 32.888 33.1998 27.982 33.7507C28.774 34.4337 29.5 35.7778 29.5 37.8269C29.5 40.7795 29.5 43.1591 29.5 43.8642C29.5 44.4591 29.852 45.1642 30.974 44.9659C39.708 42.0133 46 33.7727 46 24.0338C46 21.1403 45.431 18.2751 44.3254 15.6018C43.2197 12.9286 41.5992 10.4996 39.5563 8.45354C37.5135 6.40752 35.0882 4.78452 32.419 3.67722C29.7499 2.56992 26.8891 2 24 2V2Z" fill="white"/>
</svg>
