<svg width="48" height="49" viewBox="0 0 48 49" fill="none" xmlns="http://www.w3.org/2000/svg">
<path d="M26.75 30.5116C28.07 30.5116 28.4 31.6047 28.4 32.1512V46.3605C28.4 47.6721 29.5 48 30.05 48H38.85C40.17 48 40.5 46.907 40.5 46.3605V26.6861C40.5 25.3744 41.6 25.0465 42.15 25.0465H44.35C45.67 25.0465 46 23.407 46 23.407C46 23.407 46 22.8605 45.45 22.314L25.5145 1.54651C25.3763 1.36434 24.88 1 24 1V30.5116H26.75Z" fill="#9F9F9F"/>
<path d="M7.5 46.3605C7.5 47.6721 8.6 48 9.15 48H17.95C19.27 48 19.6 46.907 19.6 46.3605V32.1512C19.6 30.8395 20.7 30.5116 21.25 30.5116H24V1C23.3055 1 22.8165 1.22695 22.479 1.54651C21.9358 1.54651 8.79918 15.3915 2.38252 22.314C2.25501 22.4961 2 22.9698 2 23.407C2 24.7186 3.1 25.0465 3.65 25.0465H5.85C7.17 25.0465 7.5 26.1395 7.5 26.6861V46.3605Z" fill="#FDC23E"/>
<path d="M46 23.407L46.2451 23.4563L46.25 23.4319V23.407H46ZM45.45 22.314L45.2696 22.4871L45.2738 22.4913L45.45 22.314ZM25.5145 1.54651L25.3153 1.69758L25.324 1.70916L25.3341 1.71964L25.5145 1.54651ZM24 1V0.75V1ZM22.479 1.54651V1.79651H22.5786L22.6509 1.72805L22.479 1.54651ZM2.38252 22.314L2.19917 22.144L2.18752 22.1566L2.1777 22.1706L2.38252 22.314ZM7.25 46.3605C7.25 47.0984 7.56514 47.5834 7.97329 47.8754C8.3686 48.1582 8.83531 48.25 9.15 48.25V47.75C8.91469 47.75 8.5564 47.6778 8.26421 47.4688C7.98486 47.2689 7.75 46.9341 7.75 46.3605H7.25ZM9.15 48.25H17.95V47.75H9.15V48.25ZM17.95 48.25C18.6908 48.25 19.1783 47.9378 19.4724 47.5319C19.7574 47.1386 19.85 46.674 19.85 46.3605H19.35C19.35 46.5934 19.2776 46.9486 19.0676 47.2385C18.8667 47.5157 18.5292 47.75 17.95 47.75V48.25ZM19.85 46.3605V32.1512H19.35V46.3605H19.85ZM19.85 32.1512C19.85 31.5775 20.0849 31.2427 20.3642 31.0429C20.6564 30.8338 21.0147 30.7616 21.25 30.7616V30.2616C20.9353 30.2616 20.4686 30.3534 20.0733 30.6362C19.6651 30.9282 19.35 31.4132 19.35 32.1512H19.85ZM26.75 30.7616C27.3292 30.7616 27.6667 30.9959 27.8676 31.2731C28.0776 31.563 28.15 31.9182 28.15 32.1512H28.65C28.65 31.8376 28.5574 31.373 28.2724 30.9798C27.9783 30.5739 27.4908 30.2616 26.75 30.2616V30.7616ZM28.15 32.1512V46.3605H28.65V32.1512H28.15ZM28.15 46.3605C28.15 47.0984 28.4651 47.5834 28.8733 47.8754C29.2686 48.1582 29.7353 48.25 30.05 48.25V47.75C29.8147 47.75 29.4564 47.6778 29.1642 47.4688C28.8849 47.2689 28.65 46.9341 28.65 46.3605H28.15ZM30.05 48.25H38.85V47.75H30.05V48.25ZM38.85 48.25C39.5908 48.25 40.0783 47.9378 40.3724 47.5319C40.6574 47.1386 40.75 46.674 40.75 46.3605H40.25C40.25 46.5934 40.1776 46.9486 39.9676 47.2385C39.7667 47.5157 39.4292 47.75 38.85 47.75V48.25ZM40.75 46.3605V26.6861H40.25V46.3605H40.75ZM40.75 26.6861C40.75 26.1124 40.9849 25.7776 41.2642 25.5777C41.5564 25.3687 41.9147 25.2965 42.15 25.2965V24.7965C41.8353 24.7965 41.3686 24.8883 40.9733 25.1711C40.5651 25.4631 40.25 25.9481 40.25 26.6861H40.75ZM42.15 25.2965C42.1504 25.2965 42.1507 25.2965 42.1511 25.2965C42.1514 25.2965 42.1518 25.2965 42.1522 25.2965C42.1525 25.2965 42.1529 25.2965 42.1533 25.2965C42.1536 25.2965 42.154 25.2965 42.1544 25.2965C42.1548 25.2965 42.1551 25.2965 42.1555 25.2965C42.1559 25.2965 42.1563 25.2965 42.1567 25.2965C42.157 25.2965 42.1574 25.2965 42.1578 25.2965C42.1582 25.2965 42.1586 25.2965 42.159 25.2965C42.1594 25.2965 42.1598 25.2965 42.1601 25.2965C42.1605 25.2965 42.1609 25.2965 42.1613 25.2965C42.1617 25.2965 42.1621 25.2965 42.1625 25.2965C42.1629 25.2965 42.1633 25.2965 42.1637 25.2965C42.1641 25.2965 42.1646 25.2965 42.165 25.2965C42.1654 25.2965 42.1658 25.2965 42.1662 25.2965C42.1666 25.2965 42.167 25.2965 42.1674 25.2965C42.1679 25.2965 42.1683 25.2965 42.1687 25.2965C42.1691 25.2965 42.1695 25.2965 42.17 25.2965C42.1704 25.2965 42.1708 25.2965 42.1712 25.2965C42.1717 25.2965 42.1721 25.2965 42.1725 25.2965C42.173 25.2965 42.1734 25.2965 42.1738 25.2965C42.1743 25.2965 42.1747 25.2965 42.1752 25.2965C42.1756 25.2965 42.176 25.2965 42.1765 25.2965C42.1769 25.2965 42.1774 25.2965 42.1778 25.2965C42.1783 25.2965 42.1787 25.2965 42.1792 25.2965C42.1796 25.2965 42.1801 25.2965 42.1805 25.2965C42.181 25.2965 42.1815 25.2965 42.1819 25.2965C42.1824 25.2965 42.1828 25.2965 42.1833 25.2965C42.1838 25.2965 42.1842 25.2965 42.1847 25.2965C42.1852 25.2965 42.1856 25.2965 42.1861 25.2965C42.1866 25.2965 42.1871 25.2965 42.1875 25.2965C42.188 25.2965 42.1885 25.2965 42.189 25.2965C42.1895 25.2965 42.1899 25.2965 42.1904 25.2965C42.1909 25.2965 42.1914 25.2965 42.1919 25.2965C42.1924 25.2965 42.1929 25.2965 42.1933 25.2965C42.1938 25.2965 42.1943 25.2965 42.1948 25.2965C42.1953 25.2965 42.1958 25.2965 42.1963 25.2965C42.1968 25.2965 42.1973 25.2965 42.1978 25.2965C42.1983 25.2965 42.1988 25.2965 42.1993 25.2965C42.1999 25.2965 42.2004 25.2965 42.2009 25.2965C42.2014 25.2965 42.2019 25.2965 42.2024 25.2965C42.2029 25.2965 42.2035 25.2965 42.204 25.2965C42.2045 25.2965 42.205 25.2965 42.2055 25.2965C42.2061 25.2965 42.2066 25.2965 42.2071 25.2965C42.2076 25.2965 42.2082 25.2965 42.2087 25.2965C42.2092 25.2965 42.2098 25.2965 42.2103 25.2965C42.2108 25.2965 42.2114 25.2965 42.2119 25.2965C42.2125 25.2965 42.213 25.2965 42.2136 25.2965C42.2141 25.2965 42.2146 25.2965 42.2152 25.2965C42.2157 25.2965 42.2163 25.2965 42.2168 25.2965C42.2174 25.2965 42.2179 25.2965 42.2185 25.2965C42.2191 25.2965 42.2196 25.2965 42.2202 25.2965C42.2207 25.2965 42.2213 25.2965 42.2219 25.2965C42.2224 25.2965 42.223 25.2965 42.2236 25.2965C42.2241 25.2965 42.2247 25.2965 42.2253 25.2965C42.2258 25.2965 42.2264 25.2965 42.227 25.2965C42.2276 25.2965 42.2281 25.2965 42.2287 25.2965C42.2293 25.2965 42.2299 25.2965 42.2305 25.2965C42.2311 25.2965 42.2316 25.2965 42.2322 25.2965C42.2328 25.2965 42.2334 25.2965 42.234 25.2965C42.2346 25.2965 42.2352 25.2965 42.2358 25.2965C42.2364 25.2965 42.237 25.2965 42.2376 25.2965C42.2382 25.2965 42.2388 25.2965 42.2394 25.2965C42.24 25.2965 42.2406 25.2965 42.2412 25.2965C42.2418 25.2965 42.2424 25.2965 42.243 25.2965C42.2436 25.2965 42.2443 25.2965 42.2449 25.2965C42.2455 25.2965 42.2461 25.2965 42.2467 25.2965C42.2473 25.2965 42.248 25.2965 42.2486 25.2965C42.2492 25.2965 42.2498 25.2965 42.2505 25.2965C42.2511 25.2965 42.2517 25.2965 42.2524 25.2965C42.253 25.2965 42.2536 25.2965 42.2543 25.2965C42.2549 25.2965 42.2555 25.2965 42.2562 25.2965C42.2568 25.2965 42.2575 25.2965 42.2581 25.2965C42.2588 25.2965 42.2594 25.2965 42.26 25.2965C42.2607 25.2965 42.2613 25.2965 42.262 25.2965C42.2626 25.2965 42.2633 25.2965 42.264 25.2965C42.2646 25.2965 42.2653 25.2965 42.2659 25.2965C42.2666 25.2965 42.2673 25.2965 42.2679 25.2965C42.2686 25.2965 42.2693 25.2965 42.2699 25.2965C42.2706 25.2965 42.2713 25.2965 42.2719 25.2965C42.2726 25.2965 42.2733 25.2965 42.274 25.2965C42.2746 25.2965 42.2753 25.2965 42.276 25.2965C42.2767 25.2965 42.2774 25.2965 42.278 25.2965C42.2787 25.2965 42.2794 25.2965 42.2801 25.2965C42.2808 25.2965 42.2815 25.2965 42.2822 25.2965C42.2829 25.2965 42.2836 25.2965 42.2843 25.2965C42.285 25.2965 42.2857 25.2965 42.2864 25.2965C42.2871 25.2965 42.2878 25.2965 42.2885 25.2965C42.2892 25.2965 42.2899 25.2965 42.2906 25.2965C42.2913 25.2965 42.292 25.2965 42.2927 25.2965C42.2934 25.2965 42.2941 25.2965 42.2949 25.2965C42.2956 25.2965 42.2963 25.2965 42.297 25.2965C42.2977 25.2965 42.2985 25.2965 42.2992 25.2965C42.2999 25.2965 42.3006 25.2965 42.3014 25.2965C42.3021 25.2965 42.3028 25.2965 42.3036 25.2965C42.3043 25.2965 42.305 25.2965 42.3058 25.2965C42.3065 25.2965 42.3073 25.2965 42.308 25.2965C42.3087 25.2965 42.3095 25.2965 42.3102 25.2965C42.311 25.2965 42.3117 25.2965 42.3125 25.2965C42.3132 25.2965 42.314 25.2965 42.3147 25.2965C42.3155 25.2965 42.3162 25.2965 42.317 25.2965C42.3177 25.2965 42.3185 25.2965 42.3193 25.2965C42.32 25.2965 42.3208 25.2965 42.3216 25.2965C42.3223 25.2965 42.3231 25.2965 42.3239 25.2965C42.3246 25.2965 42.3254 25.2965 42.3262 25.2965C42.327 25.2965 42.3277 25.2965 42.3285 25.2965C42.3293 25.2965 42.3301 25.2965 42.3309 25.2965C42.3316 25.2965 42.3324 25.2965 42.3332 25.2965C42.334 25.2965 42.3348 25.2965 42.3356 25.2965C42.3364 25.2965 42.3372 25.2965 42.3379 25.2965C42.3387 25.2965 42.3395 25.2965 42.3403 25.2965C42.3411 25.2965 42.3419 25.2965 42.3427 25.2965C42.3435 25.2965 42.3443 25.2965 42.3452 25.2965C42.346 25.2965 42.3468 25.2965 42.3476 25.2965C42.3484 25.2965 42.3492 25.2965 42.35 25.2965C42.3508 25.2965 42.3517 25.2965 42.3525 25.2965C42.3533 25.2965 42.3541 25.2965 42.3549 25.2965C42.3558 25.2965 42.3566 25.2965 42.3574 25.2965C42.3582 25.2965 42.3591 25.2965 42.3599 25.2965C42.3607 25.2965 42.3616 25.2965 42.3624 25.2965C42.3632 25.2965 42.3641 25.2965 42.3649 25.2965C42.3658 25.2965 42.3666 25.2965 42.3674 25.2965C42.3683 25.2965 42.3691 25.2965 42.37 25.2965C42.3708 25.2965 42.3717 25.2965 42.3725 25.2965C42.3734 25.2965 42.3742 25.2965 42.3751 25.2965C42.376 25.2965 42.3768 25.2965 42.3777 25.2965C42.3785 25.2965 42.3794 25.2965 42.3803 25.2965C42.3811 25.2965 42.382 25.2965 42.3829 25.2965C42.3837 25.2965 42.3846 25.2965 42.3855 25.2965C42.3863 25.2965 42.3872 25.2965 42.3881 25.2965C42.389 25.2965 42.3899 25.2965 42.3907 25.2965C42.3916 25.2965 42.3925 25.2965 42.3934 25.2965C42.3943 25.2965 42.3952 25.2965 42.396 25.2965C42.3969 25.2965 42.3978 25.2965 42.3987 25.2965C42.3996 25.2965 42.4005 25.2965 42.4014 25.2965C42.4023 25.2965 42.4032 25.2965 42.4041 25.2965C42.405 25.2965 42.4059 25.2965 42.4068 25.2965C42.4077 25.2965 42.4086 25.2965 42.4095 25.2965C42.4104 25.2965 42.4114 25.2965 42.4123 25.2965C42.4132 25.2965 42.4141 25.2965 42.415 25.2965C42.4159 25.2965 42.4169 25.2965 42.4178 25.2965C42.4187 25.2965 42.4196 25.2965 42.4206 25.2965C42.4215 25.2965 42.4224 25.2965 42.4233 25.2965C42.4243 25.2965 42.4252 25.2965 42.4261 25.2965C42.4271 25.2965 42.428 25.2965 42.429 25.2965C42.4299 25.2965 42.4308 25.2965 42.4318 25.2965C42.4327 25.2965 42.4337 25.2965 42.4346 25.2965C42.4356 25.2965 42.4365 25.2965 42.4375 25.2965C42.4384 25.2965 42.4394 25.2965 42.4403 25.2965C42.4413 25.2965 42.4422 25.2965 42.4432 25.2965C42.4442 25.2965 42.4451 25.2965 42.4461 25.2965C42.447 25.2965 42.448 25.2965 42.449 25.2965C42.4499 25.2965 42.4509 25.2965 42.4519 25.2965C42.4529 25.2965 42.4538 25.2965 42.4548 25.2965C42.4558 25.2965 42.4568 25.2965 42.4577 25.2965C42.4587 25.2965 42.4597 25.2965 42.4607 25.2965C42.4617 25.2965 42.4627 25.2965 42.4637 25.2965C42.4646 25.2965 42.4656 25.2965 42.4666 25.2965C42.4676 25.2965 42.4686 25.2965 42.4696 25.2965C42.4706 25.2965 42.4716 25.2965 42.4726 25.2965C42.4736 25.2965 42.4746 25.2965 42.4756 25.2965C42.4766 25.2965 42.4776 25.2965 42.4786 25.2965C42.4797 25.2965 42.4807 25.2965 42.4817 25.2965C42.4827 25.2965 42.4837 25.2965 42.4847 25.2965C42.4857 25.2965 42.4868 25.2965 42.4878 25.2965C42.4888 25.2965 42.4898 25.2965 42.4909 25.2965C42.4919 25.2965 42.4929 25.2965 42.494 25.2965C42.495 25.2965 42.496 25.2965 42.4971 25.2965C42.4981 25.2965 42.4991 25.2965 42.5002 25.2965C42.5012 25.2965 42.5022 25.2965 42.5033 25.2965C42.5043 25.2965 42.5054 25.2965 42.5064 25.2965C42.5075 25.2965 42.5085 25.2965 42.5096 25.2965C42.5106 25.2965 42.5117 25.2965 42.5127 25.2965C42.5138 25.2965 42.5148 25.2965 42.5159 25.2965C42.517 25.2965 42.518 25.2965 42.5191 25.2965C42.5202 25.2965 42.5212 25.2965 42.5223 25.2965C42.5234 25.2965 42.5244 25.2965 42.5255 25.2965C42.5266 25.2965 42.5277 25.2965 42.5287 25.2965C42.5298 25.2965 42.5309 25.2965 42.532 25.2965C42.533 25.2965 42.5341 25.2965 42.5352 25.2965C42.5363 25.2965 42.5374 25.2965 42.5385 25.2965C42.5396 25.2965 42.5407 25.2965 42.5418 25.2965C42.5428 25.2965 42.5439 25.2965 42.545 25.2965C42.5461 25.2965 42.5472 25.2965 42.5483 25.2965C42.5494 25.2965 42.5505 25.2965 42.5517 25.2965C42.5528 25.2965 42.5539 25.2965 42.555 25.2965C42.5561 25.2965 42.5572 25.2965 42.5583 25.2965C42.5594 25.2965 42.5606 25.2965 42.5617 25.2965C42.5628 25.2965 42.5639 25.2965 42.565 25.2965C42.5662 25.2965 42.5673 25.2965 42.5684 25.2965C42.5695 25.2965 42.5707 25.2965 42.5718 25.2965C42.5729 25.2965 42.5741 25.2965 42.5752 25.2965C42.5763 25.2965 42.5775 25.2965 42.5786 25.2965C42.5798 25.2965 42.5809 25.2965 42.582 25.2965C42.5832 25.2965 42.5843 25.2965 42.5855 25.2965C42.5866 25.2965 42.5878 25.2965 42.5889 25.2965C42.5901 25.2965 42.5912 25.2965 42.5924 25.2965C42.5936 25.2965 42.5947 25.2965 42.5959 25.2965C42.597 25.2965 42.5982 25.2965 42.5994 25.2965C42.6005 25.2965 42.6017 25.2965 42.6029 25.2965C42.604 25.2965 42.6052 25.2965 42.6064 25.2965C42.6076 25.2965 42.6087 25.2965 42.6099 25.2965C42.6111 25.2965 42.6123 25.2965 42.6135 25.2965C42.6146 25.2965 42.6158 25.2965 42.617 25.2965C42.6182 25.2965 42.6194 25.2965 42.6206 25.2965C42.6218 25.2965 42.623 25.2965 42.6242 25.2965C42.6254 25.2965 42.6266 25.2965 42.6278 25.2965C42.629 25.2965 42.6302 25.2965 42.6314 25.2965C42.6326 25.2965 42.6338 25.2965 42.635 25.2965C42.6362 25.2965 42.6374 25.2965 42.6386 25.2965C42.6398 25.2965 42.641 25.2965 42.6423 25.2965C42.6435 25.2965 42.6447 25.2965 42.6459 25.2965C42.6471 25.2965 42.6483 25.2965 42.6496 25.2965C42.6508 25.2965 42.652 25.2965 42.6533 25.2965C42.6545 25.2965 42.6557 25.2965 42.657 25.2965C42.6582 25.2965 42.6594 25.2965 42.6607 25.2965C42.6619 25.2965 42.6631 25.2965 42.6644 25.2965C42.6656 25.2965 42.6669 25.2965 42.6681 25.2965C42.6694 25.2965 42.6706 25.2965 42.6719 25.2965C42.6731 25.2965 42.6744 25.2965 42.6756 25.2965C42.6769 25.2965 42.6781 25.2965 42.6794 25.2965C42.6806 25.2965 42.6819 25.2965 42.6832 25.2965C42.6844 25.2965 42.6857 25.2965 42.687 25.2965C42.6882 25.2965 42.6895 25.2965 42.6908 25.2965C42.6921 25.2965 42.6933 25.2965 42.6946 25.2965C42.6959 25.2965 42.6972 25.2965 42.6984 25.2965C42.6997 25.2965 42.701 25.2965 42.7023 25.2965C42.7036 25.2965 42.7049 25.2965 42.7062 25.2965C42.7074 25.2965 42.7087 25.2965 42.71 25.2965C42.7113 25.2965 42.7126 25.2965 42.7139 25.2965C42.7152 25.2965 42.7165 25.2965 42.7178 25.2965C42.7191 25.2965 42.7204 25.2965 42.7217 25.2965C42.723 25.2965 42.7243 25.2965 42.7257 25.2965C42.727 25.2965 42.7283 25.2965 42.7296 25.2965C42.7309 25.2965 42.7322 25.2965 42.7335 25.2965C42.7349 25.2965 42.7362 25.2965 42.7375 25.2965C42.7388 25.2965 42.7402 25.2965 42.7415 25.2965C42.7428 25.2965 42.7441 25.2965 42.7455 25.2965C42.7468 25.2965 42.7481 25.2965 42.7495 25.2965C42.7508 25.2965 42.7522 25.2965 42.7535 25.2965C42.7548 25.2965 42.7562 25.2965 42.7575 25.2965C42.7589 25.2965 42.7602 25.2965 42.7616 25.2965C42.7629 25.2965 42.7643 25.2965 42.7656 25.2965C42.767 25.2965 42.7683 25.2965 42.7697 25.2965C42.771 25.2965 42.7724 25.2965 42.7738 25.2965C42.7751 25.2965 42.7765 25.2965 42.7779 25.2965C42.7792 25.2965 42.7806 25.2965 42.782 25.2965C42.7833 25.2965 42.7847 25.2965 42.7861 25.2965C42.7875 25.2965 42.7888 25.2965 42.7902 25.2965C42.7916 25.2965 42.793 25.2965 42.7944 25.2965C42.7958 25.2965 42.7971 25.2965 42.7985 25.2965C42.7999 25.2965 42.8013 25.2965 42.8027 25.2965C42.8041 25.2965 42.8055 25.2965 42.8069 25.2965C42.8083 25.2965 42.8097 25.2965 42.8111 25.2965C42.8125 25.2965 42.8139 25.2965 42.8153 25.2965C42.8167 25.2965 42.8181 25.2965 42.8195 25.2965C42.8209 25.2965 42.8223 25.2965 42.8238 25.2965C42.8252 25.2965 42.8266 25.2965 42.828 25.2965C42.8294 25.2965 42.8308 25.2965 42.8323 25.2965C42.8337 25.2965 42.8351 25.2965 42.8365 25.2965C42.838 25.2965 42.8394 25.2965 42.8408 25.2965C42.8423 25.2965 42.8437 25.2965 42.8451 25.2965C42.8466 25.2965 42.848 25.2965 42.8494 25.2965C42.8509 25.2965 42.8523 25.2965 42.8538 25.2965C42.8552 25.2965 42.8567 25.2965 42.8581 25.2965C42.8596 25.2965 42.861 25.2965 42.8625 25.2965C42.8639 25.2965 42.8654 25.2965 42.8668 25.2965C42.8683 25.2965 42.8698 25.2965 42.8712 25.2965C42.8727 25.2965 42.8741 25.2965 42.8756 25.2965C42.8771 25.2965 42.8785 25.2965 42.88 25.2965C42.8815 25.2965 42.883 25.2965 42.8844 25.2965C42.8859 25.2965 42.8874 25.2965 42.8889 25.2965C42.8903 25.2965 42.8918 25.2965 42.8933 25.2965C42.8948 25.2965 42.8963 25.2965 42.8978 25.2965C42.8993 25.2965 42.9007 25.2965 42.9022 25.2965C42.9037 25.2965 42.9052 25.2965 42.9067 25.2965C42.9082 25.2965 42.9097 25.2965 42.9112 25.2965C42.9127 25.2965 42.9142 25.2965 42.9157 25.2965C42.9172 25.2965 42.9187 25.2965 42.9203 25.2965C42.9218 25.2965 42.9233 25.2965 42.9248 25.2965C42.9263 25.2965 42.9278 25.2965 42.9293 25.2965C42.9309 25.2965 42.9324 25.2965 42.9339 25.2965C42.9354 25.2965 42.937 25.2965 42.9385 25.2965C42.94 25.2965 42.9415 25.2965 42.9431 25.2965C42.9446 25.2965 42.9461 25.2965 42.9477 25.2965C42.9492 25.2965 42.9508 25.2965 42.9523 25.2965C42.9538 25.2965 42.9554 25.2965 42.9569 25.2965C42.9585 25.2965 42.96 25.2965 42.9616 25.2965C42.9631 25.2965 42.9647 25.2965 42.9662 25.2965C42.9678 25.2965 42.9693 25.2965 42.9709 25.2965C42.9724 25.2965 42.974 25.2965 42.9756 25.2965C42.9771 25.2965 42.9787 25.2965 42.9803 25.2965C42.9818 25.2965 42.9834 25.2965 42.985 25.2965C42.9865 25.2965 42.9881 25.2965 42.9897 25.2965C42.9913 25.2965 42.9928 25.2965 42.9944 25.2965C42.996 25.2965 42.9976 25.2965 42.9992 25.2965C43.0008 25.2965 43.0023 25.2965 43.0039 25.2965C43.0055 25.2965 43.0071 25.2965 43.0087 25.2965C43.0103 25.2965 43.0119 25.2965 43.0135 25.2965C43.0151 25.2965 43.0167 25.2965 43.0183 25.2965C43.0199 25.2965 43.0215 25.2965 43.0231 25.2965C43.0247 25.2965 43.0263 25.2965 43.0279 25.2965C43.0296 25.2965 43.0312 25.2965 43.0328 25.2965C43.0344 25.2965 43.036 25.2965 43.0376 25.2965C43.0393 25.2965 43.0409 25.2965 43.0425 25.2965C43.0441 25.2965 43.0457 25.2965 43.0474 25.2965C43.049 25.2965 43.0506 25.2965 43.0523 25.2965C43.0539 25.2965 43.0555 25.2965 43.0572 25.2965C43.0588 25.2965 43.0605 25.2965 43.0621 25.2965C43.0637 25.2965 43.0654 25.2965 43.067 25.2965C43.0687 25.2965 43.0703 25.2965 43.072 25.2965C43.0736 25.2965 43.0753 25.2965 43.0769 25.2965C43.0786 25.2965 43.0802 25.2965 43.0819 25.2965C43.0836 25.2965 43.0852 25.2965 43.0869 25.2965C43.0886 25.2965 43.0902 25.2965 43.0919 25.2965C43.0936 25.2965 43.0952 25.2965 43.0969 25.2965C43.0986 25.2965 43.1003 25.2965 43.1019 25.2965C43.1036 25.2965 43.1053 25.2965 43.107 25.2965C43.1087 25.2965 43.1103 25.2965 43.112 25.2965C43.1137 25.2965 43.1154 25.2965 43.1171 25.2965C43.1188 25.2965 43.1205 25.2965 43.1222 25.2965C43.1239 25.2965 43.1256 25.2965 43.1273 25.2965C43.129 25.2965 43.1307 25.2965 43.1324 25.2965C43.1341 25.2965 43.1358 25.2965 43.1375 25.2965C43.1392 25.2965 43.1409 25.2965 43.1426 25.2965C43.1443 25.2965 43.146 25.2965 43.1478 25.2965C43.1495 25.2965 43.1512 25.2965 43.1529 25.2965C43.1546 25.2965 43.1564 25.2965 43.1581 25.2965C43.1598 25.2965 43.1616 25.2965 43.1633 25.2965C43.165 25.2965 43.1667 25.2965 43.1685 25.2965C43.1702 25.2965 43.172 25.2965 43.1737 25.2965C43.1754 25.2965 43.1772 25.2965 43.1789 25.2965C43.1807 25.2965 43.1824 25.2965 43.1842 25.2965C43.1859 25.2965 43.1877 25.2965 43.1894 25.2965C43.1912 25.2965 43.1929 25.2965 43.1947 25.2965C43.1964 25.2965 43.1982 25.2965 43.2 25.2965C43.2017 25.2965 43.2035 25.2965 43.2052 25.2965C43.207 25.2965 43.2088 25.2965 43.2106 25.2965C43.2123 25.2965 43.2141 25.2965 43.2159 25.2965C43.2177 25.2965 43.2194 25.2965 43.2212 25.2965C43.223 25.2965 43.2248 25.2965 43.2266 25.2965C43.2283 25.2965 43.2301 25.2965 43.2319 25.2965C43.2337 25.2965 43.2355 25.2965 43.2373 25.2965C43.2391 25.2965 43.2409 25.2965 43.2427 25.2965C43.2445 25.2965 43.2463 25.2965 43.2481 25.2965C43.2499 25.2965 43.2517 25.2965 43.2535 25.2965C43.2553 25.2965 43.2571 25.2965 43.2589 25.2965C43.2607 25.2965 43.2625 25.2965 43.2644 25.2965C43.2662 25.2965 43.268 25.2965 43.2698 25.2965C43.2716 25.2965 43.2735 25.2965 43.2753 25.2965C43.2771 25.2965 43.2789 25.2965 43.2808 25.2965C43.2826 25.2965 43.2844 25.2965 43.2863 25.2965C43.2881 25.2965 43.2899 25.2965 43.2918 25.2965C43.2936 25.2965 43.2954 25.2965 43.2973 25.2965C43.2991 25.2965 43.301 25.2965 43.3028 25.2965C43.3047 25.2965 43.3065 25.2965 43.3084 25.2965C43.3102 25.2965 43.3121 25.2965 43.3139 25.2965C43.3158 25.2965 43.3176 25.2965 43.3195 25.2965C43.3214 25.2965 43.3232 25.2965 43.3251 25.2965C43.327 25.2965 43.3288 25.2965 43.3307 25.2965C43.3326 25.2965 43.3344 25.2965 43.3363 25.2965C43.3382 25.2965 43.3401 25.2965 43.3419 25.2965C43.3438 25.2965 43.3457 25.2965 43.3476 25.2965C43.3495 25.2965 43.3514 25.2965 43.3532 25.2965C43.3551 25.2965 43.357 25.2965 43.3589 25.2965C43.3608 25.2965 43.3627 25.2965 43.3646 25.2965C43.3665 25.2965 43.3684 25.2965 43.3703 25.2965C43.3722 25.2965 43.3741 25.2965 43.376 25.2965C43.3779 25.2965 43.3798 25.2965 43.3817 25.2965C43.3836 25.2965 43.3855 25.2965 43.3875 25.2965C43.3894 25.2965 43.3913 25.2965 43.3932 25.2965C43.3951 25.2965 43.3971 25.2965 43.399 25.2965C43.4009 25.2965 43.4028 25.2965 43.4048 25.2965C43.4067 25.2965 43.4086 25.2965 43.4105 25.2965C43.4125 25.2965 43.4144 25.2965 43.4164 25.2965C43.4183 25.2965 43.4202 25.2965 43.4222 25.2965C43.4241 25.2965 43.4261 25.2965 43.428 25.2965C43.43 25.2965 43.4319 25.2965 43.4339 25.2965C43.4358 25.2965 43.4378 25.2965 43.4397 25.2965C43.4417 25.2965 43.4436 25.2965 43.4456 25.2965C43.4475 25.2965 43.4495 25.2965 43.4515 25.2965C43.4534 25.2965 43.4554 25.2965 43.4574 25.2965C43.4593 25.2965 43.4613 25.2965 43.4633 25.2965C43.4653 25.2965 43.4672 25.2965 43.4692 25.2965C43.4712 25.2965 43.4732 25.2965 43.4752 25.2965C43.4771 25.2965 43.4791 25.2965 43.4811 25.2965C43.4831 25.2965 43.4851 25.2965 43.4871 25.2965C43.4891 25.2965 43.4911 25.2965 43.4931 25.2965C43.4951 25.2965 43.4971 25.2965 43.4991 25.2965C43.5011 25.2965 43.5031 25.2965 43.5051 25.2965C43.5071 25.2965 43.5091 25.2965 43.5111 25.2965C43.5131 25.2965 43.5151 25.2965 43.5171 25.2965C43.5191 25.2965 43.5212 25.2965 43.5232 25.2965C43.5252 25.2965 43.5272 25.2965 43.5292 25.2965C43.5313 25.2965 43.5333 25.2965 43.5353 25.2965C43.5374 25.2965 43.5394 25.2965 43.5414 25.2965C43.5434 25.2965 43.5455 25.2965 43.5475 25.2965C43.5496 25.2965 43.5516 25.2965 43.5536 25.2965C43.5557 25.2965 43.5577 25.2965 43.5598 25.2965C43.5618 25.2965 43.5639 25.2965 43.5659 25.2965C43.568 25.2965 43.57 25.2965 43.5721 25.2965C43.5741 25.2965 43.5762 25.2965 43.5783 25.2965C43.5803 25.2965 43.5824 25.2965 43.5844 25.2965C43.5865 25.2965 43.5886 25.2965 43.5906 25.2965C43.5927 25.2965 43.5948 25.2965 43.5969 25.2965C43.5989 25.2965 43.601 25.2965 43.6031 25.2965C43.6052 25.2965 43.6073 25.2965 43.6093 25.2965C43.6114 25.2965 43.6135 25.2965 43.6156 25.2965C43.6177 25.2965 43.6198 25.2965 43.6219 25.2965C43.624 25.2965 43.626 25.2965 43.6281 25.2965C43.6302 25.2965 43.6323 25.2965 43.6344 25.2965C43.6365 25.2965 43.6386 25.2965 43.6408 25.2965C43.6429 25.2965 43.645 25.2965 43.6471 25.2965C43.6492 25.2965 43.6513 25.2965 43.6534 25.2965C43.6555 25.2965 43.6577 25.2965 43.6598 25.2965C43.6619 25.2965 43.664 25.2965 43.6661 25.2965C43.6683 25.2965 43.6704 25.2965 43.6725 25.2965C43.6746 25.2965 43.6768 25.2965 43.6789 25.2965C43.681 25.2965 43.6832 25.2965 43.6853 25.2965C43.6875 25.2965 43.6896 25.2965 43.6917 25.2965C43.6939 25.2965 43.696 25.2965 43.6982 25.2965C43.7003 25.2965 43.7025 25.2965 43.7046 25.2965C43.7068 25.2965 43.7089 25.2965 43.7111 25.2965C43.7132 25.2965 43.7154 25.2965 43.7176 25.2965C43.7197 25.2965 43.7219 25.2965 43.7241 25.2965C43.7262 25.2965 43.7284 25.2965 43.7306 25.2965C43.7327 25.2965 43.7349 25.2965 43.7371 25.2965C43.7393 25.2965 43.7414 25.2965 43.7436 25.2965C43.7458 25.2965 43.748 25.2965 43.7502 25.2965C43.7523 25.2965 43.7545 25.2965 43.7567 25.2965C43.7589 25.2965 43.7611 25.2965 43.7633 25.2965C43.7655 25.2965 43.7677 25.2965 43.7699 25.2965C43.7721 25.2965 43.7743 25.2965 43.7765 25.2965C43.7787 25.2965 43.7809 25.2965 43.7831 25.2965C43.7853 25.2965 43.7875 25.2965 43.7897 25.2965C43.7919 25.2965 43.7942 25.2965 43.7964 25.2965C43.7986 25.2965 43.8008 25.2965 43.803 25.2965C43.8053 25.2965 43.8075 25.2965 43.8097 25.2965C43.8119 25.2965 43.8142 25.2965 43.8164 25.2965C43.8186 25.2965 43.8209 25.2965 43.8231 25.2965C43.8253 25.2965 43.8276 25.2965 43.8298 25.2965C43.832 25.2965 43.8343 25.2965 43.8365 25.2965C43.8388 25.2965 43.841 25.2965 43.8433 25.2965C43.8455 25.2965 43.8478 25.2965 43.85 25.2965C43.8523 25.2965 43.8545 25.2965 43.8568 25.2965C43.8591 25.2965 43.8613 25.2965 43.8636 25.2965C43.8658 25.2965 43.8681 25.2965 43.8704 25.2965C43.8726 25.2965 43.8749 25.2965 43.8772 25.2965C43.8795 25.2965 43.8817 25.2965 43.884 25.2965C43.8863 25.2965 43.8886 25.2965 43.8908 25.2965C43.8931 25.2965 43.8954 25.2965 43.8977 25.2965C43.9 25.2965 43.9023 25.2965 43.9046 25.2965C43.9069 25.2965 43.9091 25.2965 43.9114 25.2965C43.9137 25.2965 43.916 25.2965 43.9183 25.2965C43.9206 25.2965 43.9229 25.2965 43.9252 25.2965C43.9276 25.2965 43.9299 25.2965 43.9322 25.2965C43.9345 25.2965 43.9368 25.2965 43.9391 25.2965C43.9414 25.2965 43.9437 25.2965 43.9461 25.2965C43.9484 25.2965 43.9507 25.2965 43.953 25.2965C43.9553 25.2965 43.9577 25.2965 43.96 25.2965C43.9623 25.2965 43.9647 25.2965 43.967 25.2965C43.9693 25.2965 43.9717 25.2965 43.974 25.2965C43.9763 25.2965 43.9787 25.2965 43.981 25.2965C43.9834 25.2965 43.9857 25.2965 43.988 25.2965C43.9904 25.2965 43.9927 25.2965 43.9951 25.2965C43.9974 25.2965 43.9998 25.2965 44.0022 25.2965C44.0045 25.2965 44.0069 25.2965 44.0092 25.2965C44.0116 25.2965 44.014 25.2965 44.0163 25.2965C44.0187 25.2965 44.0211 25.2965 44.0234 25.2965C44.0258 25.2965 44.0282 25.2965 44.0305 25.2965C44.0329 25.2965 44.0353 25.2965 44.0377 25.2965C44.0401 25.2965 44.0424 25.2965 44.0448 25.2965C44.0472 25.2965 44.0496 25.2965 44.052 25.2965C44.0544 25.2965 44.0568 25.2965 44.0592 25.2965C44.0616 25.2965 44.064 25.2965 44.0664 25.2965C44.0688 25.2965 44.0712 25.2965 44.0736 25.2965C44.076 25.2965 44.0784 25.2965 44.0808 25.2965C44.0832 25.2965 44.0856 25.2965 44.088 25.2965C44.0904 25.2965 44.0928 25.2965 44.0952 25.2965C44.0977 25.2965 44.1001 25.2965 44.1025 25.2965C44.1049 25.2965 44.1074 25.2965 44.1098 25.2965C44.1122 25.2965 44.1146 25.2965 44.1171 25.2965C44.1195 25.2965 44.1219 25.2965 44.1244 25.2965C44.1268 25.2965 44.1292 25.2965 44.1317 25.2965C44.1341 25.2965 44.1366 25.2965 44.139 25.2965C44.1415 25.2965 44.1439 25.2965 44.1464 25.2965C44.1488 25.2965 44.1513 25.2965 44.1537 25.2965C44.1562 25.2965 44.1586 25.2965 44.1611 25.2965C44.1635 25.2965 44.166 25.2965 44.1685 25.2965C44.1709 25.2965 44.1734 25.2965 44.1759 25.2965C44.1783 25.2965 44.1808 25.2965 44.1833 25.2965C44.1858 25.2965 44.1882 25.2965 44.1907 25.2965C44.1932 25.2965 44.1957 25.2965 44.1982 25.2965C44.2006 25.2965 44.2031 25.2965 44.2056 25.2965C44.2081 25.2965 44.2106 25.2965 44.2131 25.2965C44.2156 25.2965 44.2181 25.2965 44.2206 25.2965C44.2231 25.2965 44.2256 25.2965 44.2281 25.2965C44.2306 25.2965 44.2331 25.2965 44.2356 25.2965C44.2381 25.2965 44.2406 25.2965 44.2431 25.2965C44.2456 25.2965 44.2481 25.2965 44.2507 25.2965C44.2532 25.2965 44.2557 25.2965 44.2582 25.2965C44.2607 25.2965 44.2633 25.2965 44.2658 25.2965C44.2683 25.2965 44.2708 25.2965 44.2734 25.2965C44.2759 25.2965 44.2784 25.2965 44.281 25.2965C44.2835 25.2965 44.286 25.2965 44.2886 25.2965C44.2911 25.2965 44.2937 25.2965 44.2962 25.2965C44.2988 25.2965 44.3013 25.2965 44.3039 25.2965C44.3064 25.2965 44.309 25.2965 44.3115 25.2965C44.3141 25.2965 44.3166 25.2965 44.3192 25.2965C44.3217 25.2965 44.3243 25.2965 44.3269 25.2965C44.3294 25.2965 44.332 25.2965 44.3346 25.2965C44.3371 25.2965 44.3397 25.2965 44.3423 25.2965C44.3448 25.2965 44.3474 25.2965 44.35 25.2965V24.7965C44.3474 24.7965 44.3448 24.7965 44.3423 24.7965C44.3397 24.7965 44.3371 24.7965 44.3346 24.7965C44.332 24.7965 44.3294 24.7965 44.3269 24.7965C44.3243 24.7965 44.3217 24.7965 44.3192 24.7965C44.3166 24.7965 44.3141 24.7965 44.3115 24.7965C44.309 24.7965 44.3064 24.7965 44.3039 24.7965C44.3013 24.7965 44.2988 24.7965 44.2962 24.7965C44.2937 24.7965 44.2911 24.7965 44.2886 24.7965C44.286 24.7965 44.2835 24.7965 44.281 24.7965C44.2784 24.7965 44.2759 24.7965 44.2734 24.7965C44.2708 24.7965 44.2683 24.7965 44.2658 24.7965C44.2633 24.7965 44.2607 24.7965 44.2582 24.7965C44.2557 24.7965 44.2532 24.7965 44.2507 24.7965C44.2481 24.7965 44.2456 24.7965 44.2431 24.7965C44.2406 24.7965 44.2381 24.7965 44.2356 24.7965C44.2331 24.7965 44.2306 24.7965 44.2281 24.7965C44.2256 24.7965 44.2231 24.7965 44.2206 24.7965C44.2181 24.7965 44.2156 24.7965 44.2131 24.7965C44.2106 24.7965 44.2081 24.7965 44.2056 24.7965C44.2031 24.7965 44.2006 24.7965 44.1982 24.7965C44.1957 24.7965 44.1932 24.7965 44.1907 24.7965C44.1882 24.7965 44.1858 24.7965 44.1833 24.7965C44.1808 24.7965 44.1783 24.7965 44.1759 24.7965C44.1734 24.7965 44.1709 24.7965 44.1685 24.7965C44.166 24.7965 44.1635 24.7965 44.1611 24.7965C44.1586 24.7965 44.1562 24.7965 44.1537 24.7965C44.1513 24.7965 44.1488 24.7965 44.1464 24.7965C44.1439 24.7965 44.1415 24.7965 44.139 24.7965C44.1366 24.7965 44.1341 24.7965 44.1317 24.7965C44.1292 24.7965 44.1268 24.7965 44.1244 24.7965C44.1219 24.7965 44.1195 24.7965 44.1171 24.7965C44.1146 24.7965 44.1122 24.7965 44.1098 24.7965C44.1074 24.7965 44.1049 24.7965 44.1025 24.7965C44.1001 24.7965 44.0977 24.7965 44.0952 24.7965C44.0928 24.7965 44.0904 24.7965 44.088 24.7965C44.0856 24.7965 44.0832 24.7965 44.0808 24.7965C44.0784 24.7965 44.076 24.7965 44.0736 24.7965C44.0712 24.7965 44.0688 24.7965 44.0664 24.7965C44.064 24.7965 44.0616 24.7965 44.0592 24.7965C44.0568 24.7965 44.0544 24.7965 44.052 24.7965C44.0496 24.7965 44.0472 24.7965 44.0448 24.7965C44.0424 24.7965 44.0401 24.7965 44.0377 24.7965C44.0353 24.7965 44.0329 24.7965 44.0305 24.7965C44.0282 24.7965 44.0258 24.7965 44.0234 24.7965C44.0211 24.7965 44.0187 24.7965 44.0163 24.7965C44.014 24.7965 44.0116 24.7965 44.0092 24.7965C44.0069 24.7965 44.0045 24.7965 44.0022 24.7965C43.9998 24.7965 43.9974 24.7965 43.9951 24.7965C43.9927 24.7965 43.9904 24.7965 43.988 24.7965C43.9857 24.7965 43.9834 24.7965 43.981 24.7965C43.9787 24.7965 43.9763 24.7965 43.974 24.7965C43.9717 24.7965 43.9693 24.7965 43.967 24.7965C43.9647 24.7965 43.9623 24.7965 43.96 24.7965C43.9577 24.7965 43.9553 24.7965 43.953 24.7965C43.9507 24.7965 43.9484 24.7965 43.9461 24.7965C43.9437 24.7965 43.9414 24.7965 43.9391 24.7965C43.9368 24.7965 43.9345 24.7965 43.9322 24.7965C43.9299 24.7965 43.9276 24.7965 43.9252 24.7965C43.9229 24.7965 43.9206 24.7965 43.9183 24.7965C43.916 24.7965 43.9137 24.7965 43.9114 24.7965C43.9091 24.7965 43.9069 24.7965 43.9046 24.7965C43.9023 24.7965 43.9 24.7965 43.8977 24.7965C43.8954 24.7965 43.8931 24.7965 43.8908 24.7965C43.8886 24.7965 43.8863 24.7965 43.884 24.7965C43.8817 24.7965 43.8795 24.7965 43.8772 24.7965C43.8749 24.7965 43.8726 24.7965 43.8704 24.7965C43.8681 24.7965 43.8658 24.7965 43.8636 24.7965C43.8613 24.7965 43.8591 24.7965 43.8568 24.7965C43.8545 24.7965 43.8523 24.7965 43.85 24.7965C43.8478 24.7965 43.8455 24.7965 43.8433 24.7965C43.841 24.7965 43.8388 24.7965 43.8365 24.7965C43.8343 24.7965 43.832 24.7965 43.8298 24.7965C43.8276 24.7965 43.8253 24.7965 43.8231 24.7965C43.8209 24.7965 43.8186 24.7965 43.8164 24.7965C43.8142 24.7965 43.8119 24.7965 43.8097 24.7965C43.8075 24.7965 43.8053 24.7965 43.803 24.7965C43.8008 24.7965 43.7986 24.7965 43.7964 24.7965C43.7942 24.7965 43.7919 24.7965 43.7897 24.7965C43.7875 24.7965 43.7853 24.7965 43.7831 24.7965C43.7809 24.7965 43.7787 24.7965 43.7765 24.7965C43.7743 24.7965 43.7721 24.7965 43.7699 24.7965C43.7677 24.7965 43.7655 24.7965 43.7633 24.7965C43.7611 24.7965 43.7589 24.7965 43.7567 24.7965C43.7545 24.7965 43.7523 24.7965 43.7502 24.7965C43.748 24.7965 43.7458 24.7965 43.7436 24.7965C43.7414 24.7965 43.7393 24.7965 43.7371 24.7965C43.7349 24.7965 43.7327 24.7965 43.7306 24.7965C43.7284 24.7965 43.7262 24.7965 43.7241 24.7965C43.7219 24.7965 43.7197 24.7965 43.7176 24.7965C43.7154 24.7965 43.7132 24.7965 43.7111 24.7965C43.7089 24.7965 43.7068 24.7965 43.7046 24.7965C43.7025 24.7965 43.7003 24.7965 43.6982 24.7965C43.696 24.7965 43.6939 24.7965 43.6917 24.7965C43.6896 24.7965 43.6875 24.7965 43.6853 24.7965C43.6832 24.7965 43.681 24.7965 43.6789 24.7965C43.6768 24.7965 43.6746 24.7965 43.6725 24.7965C43.6704 24.7965 43.6683 24.7965 43.6661 24.7965C43.664 24.7965 43.6619 24.7965 43.6598 24.7965C43.6577 24.7965 43.6555 24.7965 43.6534 24.7965C43.6513 24.7965 43.6492 24.7965 43.6471 24.7965C43.645 24.7965 43.6429 24.7965 43.6408 24.7965C43.6386 24.7965 43.6365 24.7965 43.6344 24.7965C43.6323 24.7965 43.6302 24.7965 43.6281 24.7965C43.626 24.7965 43.624 24.7965 43.6219 24.7965C43.6198 24.7965 43.6177 24.7965 43.6156 24.7965C43.6135 24.7965 43.6114 24.7965 43.6093 24.7965C43.6073 24.7965 43.6052 24.7965 43.6031 24.7965C43.601 24.7965 43.5989 24.7965 43.5969 24.7965C43.5948 24.7965 43.5927 24.7965 43.5906 24.7965C43.5886 24.7965 43.5865 24.7965 43.5844 24.7965C43.5824 24.7965 43.5803 24.7965 43.5783 24.7965C43.5762 24.7965 43.5741 24.7965 43.5721 24.7965C43.57 24.7965 43.568 24.7965 43.5659 24.7965C43.5639 24.7965 43.5618 24.7965 43.5598 24.7965C43.5577 24.7965 43.5557 24.7965 43.5536 24.7965C43.5516 24.7965 43.5496 24.7965 43.5475 24.7965C43.5455 24.7965 43.5434 24.7965 43.5414 24.7965C43.5394 24.7965 43.5374 24.7965 43.5353 24.7965C43.5333 24.7965 43.5313 24.7965 43.5292 24.7965C43.5272 24.7965 43.5252 24.7965 43.5232 24.7965C43.5212 24.7965 43.5191 24.7965 43.5171 24.7965C43.5151 24.7965 43.5131 24.7965 43.5111 24.7965C43.5091 24.7965 43.5071 24.7965 43.5051 24.7965C43.5031 24.7965 43.5011 24.7965 43.4991 24.7965C43.4971 24.7965 43.4951 24.7965 43.4931 24.7965C43.4911 24.7965 43.4891 24.7965 43.4871 24.7965C43.4851 24.7965 43.4831 24.7965 43.4811 24.7965C43.4791 24.7965 43.4771 24.7965 43.4752 24.7965C43.4732 24.7965 43.4712 24.7965 43.4692 24.7965C43.4672 24.7965 43.4653 24.7965 43.4633 24.7965C43.4613 24.7965 43.4593 24.7965 43.4574 24.7965C43.4554 24.7965 43.4534 24.7965 43.4515 24.7965C43.4495 24.7965 43.4475 24.7965 43.4456 24.7965C43.4436 24.7965 43.4417 24.7965 43.4397 24.7965C43.4378 24.7965 43.4358 24.7965 43.4339 24.7965C43.4319 24.7965 43.43 24.7965 43.428 24.7965C43.4261 24.7965 43.4241 24.7965 43.4222 24.7965C43.4202 24.7965 43.4183 24.7965 43.4164 24.7965C43.4144 24.7965 43.4125 24.7965 43.4105 24.7965C43.4086 24.7965 43.4067 24.7965 43.4048 24.7965C43.4028 24.7965 43.4009 24.7965 43.399 24.7965C43.3971 24.7965 43.3951 24.7965 43.3932 24.7965C43.3913 24.7965 43.3894 24.7965 43.3875 24.7965C43.3855 24.7965 43.3836 24.7965 43.3817 24.7965C43.3798 24.7965 43.3779 24.7965 43.376 24.7965C43.3741 24.7965 43.3722 24.7965 43.3703 24.7965C43.3684 24.7965 43.3665 24.7965 43.3646 24.7965C43.3627 24.7965 43.3608 24.7965 43.3589 24.7965C43.357 24.7965 43.3551 24.7965 43.3532 24.7965C43.3514 24.7965 43.3495 24.7965 43.3476 24.7965C43.3457 24.7965 43.3438 24.7965 43.3419 24.7965C43.3401 24.7965 43.3382 24.7965 43.3363 24.7965C43.3344 24.7965 43.3326 24.7965 43.3307 24.7965C43.3288 24.7965 43.327 24.7965 43.3251 24.7965C43.3232 24.7965 43.3214 24.7965 43.3195 24.7965C43.3176 24.7965 43.3158 24.7965 43.3139 24.7965C43.3121 24.7965 43.3102 24.7965 43.3084 24.7965C43.3065 24.7965 43.3047 24.7965 43.3028 24.7965C43.301 24.7965 43.2991 24.7965 43.2973 24.7965C43.2954 24.7965 43.2936 24.7965 43.2918 24.7965C43.2899 24.7965 43.2881 24.7965 43.2863 24.7965C43.2844 24.7965 43.2826 24.7965 43.2808 24.7965C43.2789 24.7965 43.2771 24.7965 43.2753 24.7965C43.2735 24.7965 43.2716 24.7965 43.2698 24.7965C43.268 24.7965 43.2662 24.7965 43.2644 24.7965C43.2625 24.7965 43.2607 24.7965 43.2589 24.7965C43.2571 24.7965 43.2553 24.7965 43.2535 24.7965C43.2517 24.7965 43.2499 24.7965 43.2481 24.7965C43.2463 24.7965 43.2445 24.7965 43.2427 24.7965C43.2409 24.7965 43.2391 24.7965 43.2373 24.7965C43.2355 24.7965 43.2337 24.7965 43.2319 24.7965C43.2301 24.7965 43.2283 24.7965 43.2266 24.7965C43.2248 24.7965 43.223 24.7965 43.2212 24.7965C43.2194 24.7965 43.2177 24.7965 43.2159 24.7965C43.2141 24.7965 43.2123 24.7965 43.2106 24.7965C43.2088 24.7965 43.207 24.7965 43.2052 24.7965C43.2035 24.7965 43.2017 24.7965 43.2 24.7965C43.1982 24.7965 43.1964 24.7965 43.1947 24.7965C43.1929 24.7965 43.1912 24.7965 43.1894 24.7965C43.1877 24.7965 43.1859 24.7965 43.1842 24.7965C43.1824 24.7965 43.1807 24.7965 43.1789 24.7965C43.1772 24.7965 43.1754 24.7965 43.1737 24.7965C43.172 24.7965 43.1702 24.7965 43.1685 24.7965C43.1667 24.7965 43.165 24.7965 43.1633 24.7965C43.1616 24.7965 43.1598 24.7965 43.1581 24.7965C43.1564 24.7965 43.1546 24.7965 43.1529 24.7965C43.1512 24.7965 43.1495 24.7965 43.1478 24.7965C43.146 24.7965 43.1443 24.7965 43.1426 24.7965C43.1409 24.7965 43.1392 24.7965 43.1375 24.7965C43.1358 24.7965 43.1341 24.7965 43.1324 24.7965C43.1307 24.7965 43.129 24.7965 43.1273 24.7965C43.1256 24.7965 43.1239 24.7965 43.1222 24.7965C43.1205 24.7965 43.1188 24.7965 43.1171 24.7965C43.1154 24.7965 43.1137 24.7965 43.112 24.7965C43.1103 24.7965 43.1087 24.7965 43.107 24.7965C43.1053 24.7965 43.1036 24.7965 43.1019 24.7965C43.1003 24.7965 43.0986 24.7965 43.0969 24.7965C43.0952 24.7965 43.0936 24.7965 43.0919 24.7965C43.0902 24.7965 43.0886 24.7965 43.0869 24.7965C43.0852 24.7965 43.0836 24.7965 43.0819 24.7965C43.0802 24.7965 43.0786 24.7965 43.0769 24.7965C43.0753 24.7965 43.0736 24.7965 43.072 24.7965C43.0703 24.7965 43.0687 24.7965 43.067 24.7965C43.0654 24.7965 43.0637 24.7965 43.0621 24.7965C43.0605 24.7965 43.0588 24.7965 43.0572 24.7965C43.0555 24.7965 43.0539 24.7965 43.0523 24.7965C43.0506 24.7965 43.049 24.7965 43.0474 24.7965C43.0457 24.7965 43.0441 24.7965 43.0425 24.7965C43.0409 24.7965 43.0393 24.7965 43.0376 24.7965C43.036 24.7965 43.0344 24.7965 43.0328 24.7965C43.0312 24.7965 43.0296 24.7965 43.0279 24.7965C43.0263 24.7965 43.0247 24.7965 43.0231 24.7965C43.0215 24.7965 43.0199 24.7965 43.0183 24.7965C43.0167 24.7965 43.0151 24.7965 43.0135 24.7965C43.0119 24.7965 43.0103 24.7965 43.0087 24.7965C43.0071 24.7965 43.0055 24.7965 43.0039 24.7965C43.0023 24.7965 43.0008 24.7965 42.9992 24.7965C42.9976 24.7965 42.996 24.7965 42.9944 24.7965C42.9928 24.7965 42.9913 24.7965 42.9897 24.7965C42.9881 24.7965 42.9865 24.7965 42.985 24.7965C42.9834 24.7965 42.9818 24.7965 42.9803 24.7965C42.9787 24.7965 42.9771 24.7965 42.9756 24.7965C42.974 24.7965 42.9724 24.7965 42.9709 24.7965C42.9693 24.7965 42.9678 24.7965 42.9662 24.7965C42.9647 24.7965 42.9631 24.7965 42.9616 24.7965C42.96 24.7965 42.9585 24.7965 42.9569 24.7965C42.9554 24.7965 42.9538 24.7965 42.9523 24.7965C42.9508 24.7965 42.9492 24.7965 42.9477 24.7965C42.9461 24.7965 42.9446 24.7965 42.9431 24.7965C42.9415 24.7965 42.94 24.7965 42.9385 24.7965C42.937 24.7965 42.9354 24.7965 42.9339 24.7965C42.9324 24.7965 42.9309 24.7965 42.9293 24.7965C42.9278 24.7965 42.9263 24.7965 42.9248 24.7965C42.9233 24.7965 42.9218 24.7965 42.9203 24.7965C42.9187 24.7965 42.9172 24.7965 42.9157 24.7965C42.9142 24.7965 42.9127 24.7965 42.9112 24.7965C42.9097 24.7965 42.9082 24.7965 42.9067 24.7965C42.9052 24.7965 42.9037 24.7965 42.9022 24.7965C42.9007 24.7965 42.8993 24.7965 42.8978 24.7965C42.8963 24.7965 42.8948 24.7965 42.8933 24.7965C42.8918 24.7965 42.8903 24.7965 42.8889 24.7965C42.8874 24.7965 42.8859 24.7965 42.8844 24.7965C42.883 24.7965 42.8815 24.7965 42.88 24.7965C42.8785 24.7965 42.8771 24.7965 42.8756 24.7965C42.8741 24.7965 42.8727 24.7965 42.8712 24.7965C42.8698 24.7965 42.8683 24.7965 42.8668 24.7965C42.8654 24.7965 42.8639 24.7965 42.8625 24.7965C42.861 24.7965 42.8596 24.7965 42.8581 24.7965C42.8567 24.7965 42.8552 24.7965 42.8538 24.7965C42.8523 24.7965 42.8509 24.7965 42.8494 24.7965C42.848 24.7965 42.8466 24.7965 42.8451 24.7965C42.8437 24.7965 42.8423 24.7965 42.8408 24.7965C42.8394 24.7965 42.838 24.7965 42.8365 24.7965C42.8351 24.7965 42.8337 24.7965 42.8323 24.7965C42.8308 24.7965 42.8294 24.7965 42.828 24.7965C42.8266 24.7965 42.8252 24.7965 42.8238 24.7965C42.8223 24.7965 42.8209 24.7965 42.8195 24.7965C42.8181 24.7965 42.8167 24.7965 42.8153 24.7965C42.8139 24.7965 42.8125 24.7965 42.8111 24.7965C42.8097 24.7965 42.8083 24.7965 42.8069 24.7965C42.8055 24.7965 42.8041 24.7965 42.8027 24.7965C42.8013 24.7965 42.7999 24.7965 42.7985 24.7965C42.7971 24.7965 42.7958 24.7965 42.7944 24.7965C42.793 24.7965 42.7916 24.7965 42.7902 24.7965C42.7888 24.7965 42.7875 24.7965 42.7861 24.7965C42.7847 24.7965 42.7833 24.7965 42.782 24.7965C42.7806 24.7965 42.7792 24.7965 42.7779 24.7965C42.7765 24.7965 42.7751 24.7965 42.7738 24.7965C42.7724 24.7965 42.771 24.7965 42.7697 24.7965C42.7683 24.7965 42.767 24.7965 42.7656 24.7965C42.7643 24.7965 42.7629 24.7965 42.7616 24.7965C42.7602 24.7965 42.7589 24.7965 42.7575 24.7965C42.7562 24.7965 42.7548 24.7965 42.7535 24.7965C42.7522 24.7965 42.7508 24.7965 42.7495 24.7965C42.7481 24.7965 42.7468 24.7965 42.7455 24.7965C42.7441 24.7965 42.7428 24.7965 42.7415 24.7965C42.7402 24.7965 42.7388 24.7965 42.7375 24.7965C42.7362 24.7965 42.7349 24.7965 42.7335 24.7965C42.7322 24.7965 42.7309 24.7965 42.7296 24.7965C42.7283 24.7965 42.727 24.7965 42.7257 24.7965C42.7243 24.7965 42.723 24.7965 42.7217 24.7965C42.7204 24.7965 42.7191 24.7965 42.7178 24.7965C42.7165 24.7965 42.7152 24.7965 42.7139 24.7965C42.7126 24.7965 42.7113 24.7965 42.71 24.7965C42.7087 24.7965 42.7074 24.7965 42.7062 24.7965C42.7049 24.7965 42.7036 24.7965 42.7023 24.7965C42.701 24.7965 42.6997 24.7965 42.6984 24.7965C42.6972 24.7965 42.6959 24.7965 42.6946 24.7965C42.6933 24.7965 42.6921 24.7965 42.6908 24.7965C42.6895 24.7965 42.6882 24.7965 42.687 24.7965C42.6857 24.7965 42.6844 24.7965 42.6832 24.7965C42.6819 24.7965 42.6806 24.7965 42.6794 24.7965C42.6781 24.7965 42.6769 24.7965 42.6756 24.7965C42.6744 24.7965 42.6731 24.7965 42.6719 24.7965C42.6706 24.7965 42.6694 24.7965 42.6681 24.7965C42.6669 24.7965 42.6656 24.7965 42.6644 24.7965C42.6631 24.7965 42.6619 24.7965 42.6607 24.7965C42.6594 24.7965 42.6582 24.7965 42.657 24.7965C42.6557 24.7965 42.6545 24.7965 42.6533 24.7965C42.652 24.7965 42.6508 24.7965 42.6496 24.7965C42.6483 24.7965 42.6471 24.7965 42.6459 24.7965C42.6447 24.7965 42.6435 24.7965 42.6423 24.7965C42.641 24.7965 42.6398 24.7965 42.6386 24.7965C42.6374 24.7965 42.6362 24.7965 42.635 24.7965C42.6338 24.7965 42.6326 24.7965 42.6314 24.7965C42.6302 24.7965 42.629 24.7965 42.6278 24.7965C42.6266 24.7965 42.6254 24.7965 42.6242 24.7965C42.623 24.7965 42.6218 24.7965 42.6206 24.7965C42.6194 24.7965 42.6182 24.7965 42.617 24.7965C42.6158 24.7965 42.6146 24.7965 42.6135 24.7965C42.6123 24.7965 42.6111 24.7965 42.6099 24.7965C42.6087 24.7965 42.6076 24.7965 42.6064 24.7965C42.6052 24.7965 42.604 24.7965 42.6029 24.7965C42.6017 24.7965 42.6005 24.7965 42.5994 24.7965C42.5982 24.7965 42.597 24.7965 42.5959 24.7965C42.5947 24.7965 42.5936 24.7965 42.5924 24.7965C42.5912 24.7965 42.5901 24.7965 42.5889 24.7965C42.5878 24.7965 42.5866 24.7965 42.5855 24.7965C42.5843 24.7965 42.5832 24.7965 42.582 24.7965C42.5809 24.7965 42.5798 24.7965 42.5786 24.7965C42.5775 24.7965 42.5763 24.7965 42.5752 24.7965C42.5741 24.7965 42.5729 24.7965 42.5718 24.7965C42.5707 24.7965 42.5695 24.7965 42.5684 24.7965C42.5673 24.7965 42.5662 24.7965 42.565 24.7965C42.5639 24.7965 42.5628 24.7965 42.5617 24.7965C42.5606 24.7965 42.5594 24.7965 42.5583 24.7965C42.5572 24.7965 42.5561 24.7965 42.555 24.7965C42.5539 24.7965 42.5528 24.7965 42.5517 24.7965C42.5505 24.7965 42.5494 24.7965 42.5483 24.7965C42.5472 24.7965 42.5461 24.7965 42.545 24.7965C42.5439 24.7965 42.5428 24.7965 42.5418 24.7965C42.5407 24.7965 42.5396 24.7965 42.5385 24.7965C42.5374 24.7965 42.5363 24.7965 42.5352 24.7965C42.5341 24.7965 42.533 24.7965 42.532 24.7965C42.5309 24.7965 42.5298 24.7965 42.5287 24.7965C42.5277 24.7965 42.5266 24.7965 42.5255 24.7965C42.5244 24.7965 42.5234 24.7965 42.5223 24.7965C42.5212 24.7965 42.5202 24.7965 42.5191 24.7965C42.518 24.7965 42.517 24.7965 42.5159 24.7965C42.5148 24.7965 42.5138 24.7965 42.5127 24.7965C42.5117 24.7965 42.5106 24.7965 42.5096 24.7965C42.5085 24.7965 42.5075 24.7965 42.5064 24.7965C42.5054 24.7965 42.5043 24.7965 42.5033 24.7965C42.5022 24.7965 42.5012 24.7965 42.5002 24.7965C42.4991 24.7965 42.4981 24.7965 42.4971 24.7965C42.496 24.7965 42.495 24.7965 42.494 24.7965C42.4929 24.7965 42.4919 24.7965 42.4909 24.7965C42.4898 24.7965 42.4888 24.7965 42.4878 24.7965C42.4868 24.7965 42.4857 24.7965 42.4847 24.7965C42.4837 24.7965 42.4827 24.7965 42.4817 24.7965C42.4807 24.7965 42.4797 24.7965 42.4786 24.7965C42.4776 24.7965 42.4766 24.7965 42.4756 24.7965C42.4746 24.7965 42.4736 24.7965 42.4726 24.7965C42.4716 24.7965 42.4706 24.7965 42.4696 24.7965C42.4686 24.7965 42.4676 24.7965 42.4666 24.7965C42.4656 24.7965 42.4646 24.7965 42.4637 24.7965C42.4627 24.7965 42.4617 24.7965 42.4607 24.7965C42.4597 24.7965 42.4587 24.7965 42.4577 24.7965C42.4568 24.7965 42.4558 24.7965 42.4548 24.7965C42.4538 24.7965 42.4529 24.7965 42.4519 24.7965C42.4509 24.7965 42.4499 24.7965 42.449 24.7965C42.448 24.7965 42.447 24.7965 42.4461 24.7965C42.4451 24.7965 42.4442 24.7965 42.4432 24.7965C42.4422 24.7965 42.4413 24.7965 42.4403 24.7965C42.4394 24.7965 42.4384 24.7965 42.4375 24.7965C42.4365 24.7965 42.4356 24.7965 42.4346 24.7965C42.4337 24.7965 42.4327 24.7965 42.4318 24.7965C42.4308 24.7965 42.4299 24.7965 42.429 24.7965C42.428 24.7965 42.4271 24.7965 42.4261 24.7965C42.4252 24.7965 42.4243 24.7965 42.4233 24.7965C42.4224 24.7965 42.4215 24.7965 42.4206 24.7965C42.4196 24.7965 42.4187 24.7965 42.4178 24.7965C42.4169 24.7965 42.4159 24.7965 42.415 24.7965C42.4141 24.7965 42.4132 24.7965 42.4123 24.7965C42.4114 24.7965 42.4104 24.7965 42.4095 24.7965C42.4086 24.7965 42.4077 24.7965 42.4068 24.7965C42.4059 24.7965 42.405 24.7965 42.4041 24.7965C42.4032 24.7965 42.4023 24.7965 42.4014 24.7965C42.4005 24.7965 42.3996 24.7965 42.3987 24.7965C42.3978 24.7965 42.3969 24.7965 42.396 24.7965C42.3952 24.7965 42.3943 24.7965 42.3934 24.7965C42.3925 24.7965 42.3916 24.7965 42.3907 24.7965C42.3899 24.7965 42.389 24.7965 42.3881 24.7965C42.3872 24.7965 42.3863 24.7965 42.3855 24.7965C42.3846 24.7965 42.3837 24.7965 42.3829 24.7965C42.382 24.7965 42.3811 24.7965 42.3803 24.7965C42.3794 24.7965 42.3785 24.7965 42.3777 24.7965C42.3768 24.7965 42.376 24.7965 42.3751 24.7965C42.3742 24.7965 42.3734 24.7965 42.3725 24.7965C42.3717 24.7965 42.3708 24.7965 42.37 24.7965C42.3691 24.7965 42.3683 24.7965 42.3674 24.7965C42.3666 24.7965 42.3658 24.7965 42.3649 24.7965C42.3641 24.7965 42.3632 24.7965 42.3624 24.7965C42.3616 24.7965 42.3607 24.7965 42.3599 24.7965C42.3591 24.7965 42.3582 24.7965 42.3574 24.7965C42.3566 24.7965 42.3558 24.7965 42.3549 24.7965C42.3541 24.7965 42.3533 24.7965 42.3525 24.7965C42.3517 24.7965 42.3508 24.7965 42.35 24.7965C42.3492 24.7965 42.3484 24.7965 42.3476 24.7965C42.3468 24.7965 42.346 24.7965 42.3452 24.7965C42.3443 24.7965 42.3435 24.7965 42.3427 24.7965C42.3419 24.7965 42.3411 24.7965 42.3403 24.7965C42.3395 24.7965 42.3387 24.7965 42.3379 24.7965C42.3372 24.7965 42.3364 24.7965 42.3356 24.7965C42.3348 24.7965 42.334 24.7965 42.3332 24.7965C42.3324 24.7965 42.3316 24.7965 42.3309 24.7965C42.3301 24.7965 42.3293 24.7965 42.3285 24.7965C42.3277 24.7965 42.327 24.7965 42.3262 24.7965C42.3254 24.7965 42.3246 24.7965 42.3239 24.7965C42.3231 24.7965 42.3223 24.7965 42.3216 24.7965C42.3208 24.7965 42.32 24.7965 42.3193 24.7965C42.3185 24.7965 42.3177 24.7965 42.317 24.7965C42.3162 24.7965 42.3155 24.7965 42.3147 24.7965C42.314 24.7965 42.3132 24.7965 42.3125 24.7965C42.3117 24.7965 42.311 24.7965 42.3102 24.7965C42.3095 24.7965 42.3087 24.7965 42.308 24.7965C42.3073 24.7965 42.3065 24.7965 42.3058 24.7965C42.305 24.7965 42.3043 24.7965 42.3036 24.7965C42.3028 24.7965 42.3021 24.7965 42.3014 24.7965C42.3006 24.7965 42.2999 24.7965 42.2992 24.7965C42.2985 24.7965 42.2977 24.7965 42.297 24.7965C42.2963 24.7965 42.2956 24.7965 42.2949 24.7965C42.2941 24.7965 42.2934 24.7965 42.2927 24.7965C42.292 24.7965 42.2913 24.7965 42.2906 24.7965C42.2899 24.7965 42.2892 24.7965 42.2885 24.7965C42.2878 24.7965 42.2871 24.7965 42.2864 24.7965C42.2857 24.7965 42.285 24.7965 42.2843 24.7965C42.2836 24.7965 42.2829 24.7965 42.2822 24.7965C42.2815 24.7965 42.2808 24.7965 42.2801 24.7965C42.2794 24.7965 42.2787 24.7965 42.278 24.7965C42.2774 24.7965 42.2767 24.7965 42.276 24.7965C42.2753 24.7965 42.2746 24.7965 42.274 24.7965C42.2733 24.7965 42.2726 24.7965 42.2719 24.7965C42.2713 24.7965 42.2706 24.7965 42.2699 24.7965C42.2693 24.7965 42.2686 24.7965 42.2679 24.7965C42.2673 24.7965 42.2666 24.7965 42.2659 24.7965C42.2653 24.7965 42.2646 24.7965 42.264 24.7965C42.2633 24.7965 42.2626 24.7965 42.262 24.7965C42.2613 24.7965 42.2607 24.7965 42.26 24.7965C42.2594 24.7965 42.2588 24.7965 42.2581 24.7965C42.2575 24.7965 42.2568 24.7965 42.2562 24.7965C42.2555 24.7965 42.2549 24.7965 42.2543 24.7965C42.2536 24.7965 42.253 24.7965 42.2524 24.7965C42.2517 24.7965 42.2511 24.7965 42.2505 24.7965C42.2498 24.7965 42.2492 24.7965 42.2486 24.7965C42.248 24.7965 42.2473 24.7965 42.2467 24.7965C42.2461 24.7965 42.2455 24.7965 42.2449 24.7965C42.2443 24.7965 42.2436 24.7965 42.243 24.7965C42.2424 24.7965 42.2418 24.7965 42.2412 24.7965C42.2406 24.7965 42.24 24.7965 42.2394 24.7965C42.2388 24.7965 42.2382 24.7965 42.2376 24.7965C42.237 24.7965 42.2364 24.7965 42.2358 24.7965C42.2352 24.7965 42.2346 24.7965 42.234 24.7965C42.2334 24.7965 42.2328 24.7965 42.2322 24.7965C42.2316 24.7965 42.2311 24.7965 42.2305 24.7965C42.2299 24.7965 42.2293 24.7965 42.2287 24.7965C42.2281 24.7965 42.2276 24.7965 42.227 24.7965C42.2264 24.7965 42.2258 24.7965 42.2253 24.7965C42.2247 24.7965 42.2241 24.7965 42.2236 24.7965C42.223 24.7965 42.2224 24.7965 42.2219 24.7965C42.2213 24.7965 42.2207 24.7965 42.2202 24.7965C42.2196 24.7965 42.2191 24.7965 42.2185 24.7965C42.2179 24.7965 42.2174 24.7965 42.2168 24.7965C42.2163 24.7965 42.2157 24.7965 42.2152 24.7965C42.2146 24.7965 42.2141 24.7965 42.2136 24.7965C42.213 24.7965 42.2125 24.7965 42.2119 24.7965C42.2114 24.7965 42.2108 24.7965 42.2103 24.7965C42.2098 24.7965 42.2092 24.7965 42.2087 24.7965C42.2082 24.7965 42.2076 24.7965 42.2071 24.7965C42.2066 24.7965 42.2061 24.7965 42.2055 24.7965C42.205 24.7965 42.2045 24.7965 42.204 24.7965C42.2035 24.7965 42.2029 24.7965 42.2024 24.7965C42.2019 24.7965 42.2014 24.7965 42.2009 24.7965C42.2004 24.7965 42.1999 24.7965 42.1993 24.7965C42.1988 24.7965 42.1983 24.7965 42.1978 24.7965C42.1973 24.7965 42.1968 24.7965 42.1963 24.7965C42.1958 24.7965 42.1953 24.7965 42.1948 24.7965C42.1943 24.7965 42.1938 24.7965 42.1933 24.7965C42.1929 24.7965 42.1924 24.7965 42.1919 24.7965C42.1914 24.7965 42.1909 24.7965 42.1904 24.7965C42.1899 24.7965 42.1895 24.7965 42.189 24.7965C42.1885 24.7965 42.188 24.7965 42.1875 24.7965C42.1871 24.7965 42.1866 24.7965 42.1861 24.7965C42.1856 24.7965 42.1852 24.7965 42.1847 24.7965C42.1842 24.7965 42.1838 24.7965 42.1833 24.7965C42.1828 24.7965 42.1824 24.7965 42.1819 24.7965C42.1815 24.7965 42.181 24.7965 42.1805 24.7965C42.1801 24.7965 42.1796 24.7965 42.1792 24.7965C42.1787 24.7965 42.1783 24.7965 42.1778 24.7965C42.1774 24.7965 42.1769 24.7965 42.1765 24.7965C42.176 24.7965 42.1756 24.7965 42.1752 24.7965C42.1747 24.7965 42.1743 24.7965 42.1738 24.7965C42.1734 24.7965 42.173 24.7965 42.1725 24.7965C42.1721 24.7965 42.1717 24.7965 42.1712 24.7965C42.1708 24.7965 42.1704 24.7965 42.17 24.7965C42.1695 24.7965 42.1691 24.7965 42.1687 24.7965C42.1683 24.7965 42.1679 24.7965 42.1674 24.7965C42.167 24.7965 42.1666 24.7965 42.1662 24.7965C42.1658 24.7965 42.1654 24.7965 42.165 24.7965C42.1646 24.7965 42.1641 24.7965 42.1637 24.7965C42.1633 24.7965 42.1629 24.7965 42.1625 24.7965C42.1621 24.7965 42.1617 24.7965 42.1613 24.7965C42.1609 24.7965 42.1605 24.7965 42.1601 24.7965C42.1598 24.7965 42.1594 24.7965 42.159 24.7965C42.1586 24.7965 42.1582 24.7965 42.1578 24.7965C42.1574 24.7965 42.157 24.7965 42.1567 24.7965C42.1563 24.7965 42.1559 24.7965 42.1555 24.7965C42.1551 24.7965 42.1548 24.7965 42.1544 24.7965C42.154 24.7965 42.1536 24.7965 42.1533 24.7965C42.1529 24.7965 42.1525 24.7965 42.1522 24.7965C42.1518 24.7965 42.1514 24.7965 42.1511 24.7965C42.1507 24.7965 42.1504 24.7965 42.15 24.7965V25.2965ZM44.35 25.2965C45.1335 25.2965 45.6136 24.8039 45.884 24.356C46.0199 24.1309 46.1093 23.9081 46.1648 23.7427C46.1927 23.6595 46.2124 23.5898 46.2253 23.5401C46.2317 23.5152 46.2365 23.4952 46.2397 23.481C46.2413 23.4739 46.2426 23.4682 46.2435 23.4641C46.2439 23.462 46.2443 23.4603 46.2445 23.459C46.2447 23.4584 46.2448 23.4578 46.2449 23.4574C46.2449 23.4571 46.245 23.4569 46.245 23.4568C46.245 23.4567 46.245 23.4566 46.245 23.4565C46.2451 23.4564 46.2451 23.4563 46 23.407C45.7549 23.3577 45.7549 23.3576 45.7549 23.3575C45.755 23.3575 45.755 23.3574 45.755 23.3574C45.755 23.3573 45.755 23.3572 45.755 23.3572C45.755 23.3572 45.755 23.3572 45.755 23.3573C45.7549 23.3576 45.7548 23.3583 45.7546 23.3593C45.7541 23.3614 45.7533 23.3649 45.7522 23.3698C45.75 23.3796 45.7464 23.3949 45.7412 23.4148C45.7309 23.4547 45.7145 23.5131 45.6908 23.5836C45.6432 23.7257 45.5676 23.9127 45.456 24.0975C45.2314 24.4694 44.8865 24.7965 44.35 24.7965V25.2965ZM46 23.407C46.25 23.407 46.25 23.4069 46.25 23.4067C46.25 23.4067 46.25 23.4066 46.25 23.4065C46.25 23.4063 46.25 23.4061 46.25 23.4059C46.25 23.4055 46.25 23.4051 46.25 23.4046C46.25 23.4037 46.25 23.4026 46.25 23.4014C46.2499 23.399 46.2498 23.3961 46.2497 23.3926C46.2495 23.3857 46.2491 23.3767 46.2484 23.3657C46.2469 23.3438 46.2441 23.314 46.2389 23.2775C46.2284 23.2045 46.208 23.1042 46.1683 22.9859C46.0886 22.7484 45.9319 22.4403 45.6262 22.1366L45.2738 22.4913C45.5181 22.7341 45.6364 22.9726 45.6942 23.1449C45.7233 23.2315 45.7373 23.3021 45.7439 23.3486C45.7473 23.3719 45.7488 23.3891 45.7495 23.3992C45.7498 23.4042 45.75 23.4075 45.75 23.4088C45.75 23.4095 45.75 23.4097 45.75 23.4094C45.75 23.4092 45.75 23.409 45.75 23.4086C45.75 23.4084 45.75 23.4081 45.75 23.4079C45.75 23.4077 45.75 23.4076 45.75 23.4074C45.75 23.4074 45.75 23.4073 45.75 23.4072C45.75 23.4071 45.75 23.407 46 23.407ZM22.479 1.29651C22.4149 1.29651 22.363 1.31887 22.3401 1.32934C22.3107 1.34286 22.2821 1.35969 22.2564 1.37629C22.2044 1.40976 22.1437 1.45544 22.0772 1.50921C21.943 1.61761 21.7661 1.77419 21.5529 1.97144C21.1256 2.36682 20.5402 2.93736 19.8355 3.64104C18.4254 5.04905 16.5304 6.99749 14.453 9.16116C10.2978 13.4888 5.40847 18.6817 2.19917 22.144L2.56586 22.4839C5.77323 19.0237 10.6605 13.8329 14.8136 9.50745C16.8903 7.34457 18.7824 5.39911 20.1887 3.99486C20.8922 3.29242 21.4723 2.72723 21.8925 2.33843C22.1031 2.14358 22.2703 1.99595 22.3914 1.89816C22.4524 1.84884 22.4972 1.81593 22.5272 1.79659C22.5424 1.78678 22.549 1.78365 22.5486 1.7838C22.5483 1.78397 22.543 1.7864 22.5338 1.78907C22.5257 1.79145 22.5061 1.79651 22.479 1.79651V1.29651ZM1.75 23.407C1.75 24.1449 2.06514 24.6299 2.47329 24.9219C2.8686 25.2048 3.33531 25.2965 3.65 25.2965V24.7965C3.41469 24.7965 3.0564 24.7243 2.76421 24.5153C2.48486 24.3154 2.25 23.9806 2.25 23.407H1.75ZM3.65 25.2965H5.85V24.7965H3.65V25.2965ZM5.85 25.2965C6.42919 25.2965 6.76668 25.5308 6.96756 25.808C7.17761 26.0979 7.25 26.4531 7.25 26.6861H7.75C7.75 26.3725 7.65739 25.9079 7.37244 25.5147C7.07832 25.1087 6.59081 24.7965 5.85 24.7965V25.2965ZM7.25 26.6861V46.3605H7.75V26.6861H7.25ZM21.25 30.7616H24V30.2616H21.25V30.7616ZM24 30.7616H26.75V30.2616H24V30.7616ZM2.25 23.407C2.25 23.233 2.30176 23.0391 2.37501 22.8591C2.44765 22.6805 2.53431 22.5331 2.58733 22.4573L2.1777 22.1706C2.10321 22.277 1.99862 22.4575 1.91188 22.6706C1.82575 22.8823 1.75 23.1437 1.75 23.407H2.25ZM45.6304 22.1408L25.6948 1.37338L25.3341 1.71964L45.2696 22.4871L45.6304 22.1408ZM23.75 1V30.5116H24.25V1H23.75ZM24 0.75C23.2458 0.75 22.694 0.998605 22.3071 1.36498L22.6509 1.72805C22.9389 1.4553 23.3651 1.25 24 1.25V0.75ZM24 1.25C24.8155 1.25 25.2321 1.58792 25.3153 1.69758L25.7137 1.39545C25.5205 1.14076 24.9445 0.750002 24 0.75V1.25ZM42.15 25.2965H44.35V24.7965H42.15V25.2965Z" fill="white"/>
</svg>
