<svg width="48" height="48" viewBox="0 0 48 48" fill="none" xmlns="http://www.w3.org/2000/svg">
<path d="M14.76 2H33.24C40.28 2 46 7.72 46 14.76V33.24C46 36.6242 44.6556 39.8697 42.2627 42.2627C39.8697 44.6556 36.6242 46 33.24 46H14.76C7.72 46 2 40.28 2 33.24V14.76C2 11.3758 3.34435 8.13028 5.73732 5.73732C8.13028 3.34435 11.3758 2 14.76 2V2ZM14.32 6.4C12.2195 6.4 10.205 7.23443 8.71971 8.71971C7.23443 10.205 6.4 12.2195 6.4 14.32V33.68C6.4 38.058 9.942 41.6 14.32 41.6H33.68C35.7805 41.6 37.795 40.7656 39.2803 39.2803C40.7656 37.795 41.6 35.7805 41.6 33.68V14.32C41.6 9.942 38.058 6.4 33.68 6.4H14.32ZM35.55 9.7C36.2793 9.7 36.9788 9.98973 37.4945 10.5055C38.0103 11.0212 38.3 11.7207 38.3 12.45C38.3 13.1793 38.0103 13.8788 37.4945 14.3945C36.9788 14.9103 36.2793 15.2 35.55 15.2C34.8207 15.2 34.1212 14.9103 33.6055 14.3945C33.0897 13.8788 32.8 13.1793 32.8 12.45C32.8 11.7207 33.0897 11.0212 33.6055 10.5055C34.1212 9.98973 34.8207 9.7 35.55 9.7ZM24 13C26.9174 13 29.7153 14.1589 31.7782 16.2218C33.8411 18.2847 35 21.0826 35 24C35 26.9174 33.8411 29.7153 31.7782 31.7782C29.7153 33.8411 26.9174 35 24 35C21.0826 35 18.2847 33.8411 16.2218 31.7782C14.1589 29.7153 13 26.9174 13 24C13 21.0826 14.1589 18.2847 16.2218 16.2218C18.2847 14.1589 21.0826 13 24 13V13ZM24 17.4C22.2496 17.4 20.5708 18.0954 19.3331 19.3331C18.0954 20.5708 17.4 22.2496 17.4 24C17.4 25.7504 18.0954 27.4292 19.3331 28.6669C20.5708 29.9046 22.2496 30.6 24 30.6C25.7504 30.6 27.4292 29.9046 28.6669 28.6669C29.9046 27.4292 30.6 25.7504 30.6 24C30.6 22.2496 29.9046 20.5708 28.6669 19.3331C27.4292 18.0954 25.7504 17.4 24 17.4Z" fill="white"/>
</svg>
