<svg width="50" height="50" viewBox="0 0 50 50" fill="none" xmlns="http://www.w3.org/2000/svg">
<path d="M33.9302 24.7176C33.9302 27.7294 32.1442 33.7529 25 33.7529V43.9176V49H30.5814L32.0447 42.8171C34.1028 42.1054 35.8326 41.0865 37.2791 39.8739L43.4186 41.6588L49 31.4941L43.788 27.3514C43.9186 26.3997 43.9767 25.5097 43.9767 24.7176C43.9767 23.7295 43.9244 22.789 43.8247 21.8941L48.4419 17.9412L42.8605 7.77647L37.2791 9.67218C35.5875 8.36133 33.7308 7.4192 31.9034 6.7671L31.1395 1H25V5.51765V15.6824C27.9767 15.6824 33.9302 17.4894 33.9302 24.7176Z" fill="#9F9F9F"/>
<path d="M25 15.6824C17.8558 15.6824 16.0698 21.7059 16.0698 24.7176C16.0698 31.9459 22.0233 33.7529 25 33.7529M25 15.6824C27.9767 15.6824 33.9302 17.4894 33.9302 24.7176C33.9302 27.7294 32.1442 33.7529 25 33.7529M25 15.6824V1M25 15.6824V5.51765V1M25 33.7529V49M25 33.7529V43.9176V49M25 1H18.8605L17.8724 6.64706C15.7645 7.38761 14.0033 8.45157 12.54 9.71539L7.13954 7.77647L1 17.9412L6.19046 22.2454C6.07497 23.1363 6.02326 23.9706 6.02326 24.7176C6.02326 25.6133 6.06627 26.4698 6.14854 27.2886L1 32.0588L6.5814 41.6588L12.5323 39.6148C14.2686 40.999 16.1892 41.9857 18.0792 42.662L19.4186 49H25M25 1H31.1395L31.9034 6.7671C33.7308 7.4192 35.5875 8.36133 37.2791 9.67218L42.8605 7.77647L48.4419 17.9412L43.8247 21.8941C43.9244 22.789 43.9767 23.7295 43.9767 24.7176C43.9767 25.5097 43.9186 26.3997 43.788 27.3514L49 31.4941L43.4186 41.6588L37.2791 39.8739C35.8326 41.0865 34.1028 42.1054 32.0447 42.8171L30.5814 49H25" stroke="white" stroke-width="0.2"/>
<path d="M16.0698 24.7176C16.0698 21.7059 17.8558 15.6824 25 15.6824V5.51765V1H18.8605L17.8724 6.64706C15.7645 7.38761 14.0033 8.45157 12.54 9.71539L7.13954 7.77647L1 17.9412L6.19046 22.2454C6.07497 23.1363 6.02326 23.9706 6.02326 24.7176C6.02326 25.6133 6.06627 26.4698 6.14854 27.2886L1 32.0588L6.5814 41.6588L12.5323 39.6148C14.2686 40.999 16.1892 41.9857 18.0792 42.662L19.4186 49H25V43.9176V33.7529C22.0233 33.7529 16.0698 31.9459 16.0698 24.7176Z" fill="#FDC23E"/>
<path d="M25 15.6824C17.8558 15.6824 16.0698 21.7059 16.0698 24.7176C16.0698 31.9459 22.0233 33.7529 25 33.7529M25 15.6824C27.9767 15.6824 33.9302 17.4894 33.9302 24.7176C33.9302 27.7294 32.1442 33.7529 25 33.7529M25 15.6824V1M25 15.6824V5.51765V1M25 33.7529V49M25 33.7529V43.9176V49M25 1H18.8605L17.8724 6.64706C15.7645 7.38761 14.0033 8.45157 12.54 9.71539L7.13954 7.77647L1 17.9412L6.19046 22.2454C6.07497 23.1363 6.02326 23.9706 6.02326 24.7176C6.02326 25.6133 6.06627 26.4698 6.14854 27.2886L1 32.0588L6.5814 41.6588L12.5323 39.6148C14.2686 40.999 16.1892 41.9857 18.0792 42.662L19.4186 49H25M25 1H31.1395L31.9034 6.7671C33.7308 7.4192 35.5875 8.36133 37.2791 9.67218L42.8605 7.77647L48.4419 17.9412L43.8247 21.8941C43.9244 22.789 43.9767 23.7295 43.9767 24.7176C43.9767 25.5097 43.9186 26.3997 43.788 27.3514L49 31.4941L43.4186 41.6588L37.2791 39.8739C35.8326 41.0865 34.1028 42.1054 32.0447 42.8171L30.5814 49H25" stroke="white" stroke-width="0.2"/>
</svg>
