<svg width="48" height="48" viewBox="0 0 48 48" fill="none" xmlns="http://www.w3.org/2000/svg">
<path d="M24 15.25C24.9946 15.25 25.9484 15.6451 26.6516 16.3483C27.3549 17.0516 27.75 18.0054 27.75 19C27.75 19.9946 27.3549 20.9484 26.6516 21.6517C25.9484 22.3549 24.9946 22.75 24 22.75C23.0054 22.75 22.0516 22.3549 21.3483 21.6516C20.6451 20.9484 20.25 19.9946 20.25 19C20.25 18.0054 20.6451 17.0516 21.3483 16.3483C22.0516 15.6451 23.0054 15.25 24 15.25ZM24 25.25C26.1796 25.25 28.1397 25.6919 29.5457 26.3949C30.9665 27.1053 31.75 28.0406 31.75 29V30.75H16.25V29C16.25 28.0406 17.0335 27.1053 18.4543 26.3949C19.8602 25.6919 21.8204 25.25 24 25.25Z" fill="#FDC23E" stroke="white" stroke-width="0.5"/>
<path d="M2.58031 29.9843C2.58034 29.9843 2.58037 29.9843 2.5804 29.9843L7.35121 26.3325L7.45857 26.2503L7.44857 26.1155L7.29164 23.9997L7.44861 21.8179L7.45839 21.682L7.34946 21.6002L2.5804 18.0157C2.58007 18.0155 2.57973 18.0152 2.57939 18.015C2.24614 17.7582 2.14651 17.3045 2.37046 16.9358L2.3717 16.9337L6.89411 9.32169L6.89418 9.32173L6.89725 9.31626C7.10508 8.94555 7.58077 8.78893 7.96606 8.94228L7.96753 8.94286L13.5979 11.1429L13.7256 11.1927L13.8363 11.112C15.0013 10.2619 16.2028 9.5268 17.6004 8.98722L17.737 8.93448L17.7578 8.78951L18.5939 2.96307C18.6643 2.56193 19.0298 2.25 19.4776 2.25H28.5224C28.9702 2.25 29.3357 2.56193 29.4061 2.96307L30.2422 8.78951L30.263 8.93448L30.3996 8.98722C31.7972 9.5268 32.9987 10.2619 34.1637 11.112L34.2744 11.1927L34.4021 11.1429L40.0325 8.94286L40.0339 8.94228C40.4192 8.78893 40.8949 8.94555 41.1028 9.31626L41.1027 9.31629L41.1059 9.32169L45.6283 16.9337L45.6296 16.9358C45.8535 17.3045 45.7539 17.7582 45.4206 18.015C45.4203 18.0152 45.4199 18.0155 45.4196 18.0157L40.6505 21.6002L40.5416 21.682L40.5514 21.8179L40.7084 24L40.5514 26.1821L40.5416 26.318L40.6505 26.3998L45.4196 29.9843C45.4199 29.9845 45.4203 29.9848 45.4206 29.985C45.7539 30.2418 45.8535 30.6955 45.6295 31.0642L45.6283 31.0663L41.1059 38.6783L41.1058 38.6783L41.1028 38.6837C40.8949 39.0545 40.4192 39.2111 40.0339 39.0577L40.0325 39.0571L34.4021 36.8571L34.2744 36.8073L34.1637 36.8881C32.9987 37.7381 31.7972 38.4732 30.3996 39.0128L30.263 39.0655L30.2422 39.2105L29.4061 45.0369C29.3357 45.4381 28.9702 45.75 28.5224 45.75H19.4776C19.0298 45.75 18.6643 45.4381 18.5939 45.0369L17.7578 39.2105L17.737 39.0655L17.6004 39.0128C16.2031 38.4733 15.0021 37.7385 13.8387 36.8678L13.727 36.7842L13.5971 36.8355L7.9711 39.0557C7.57252 39.1946 7.10017 39.0457 6.89725 38.6837L6.89732 38.6837L6.89411 38.6783L2.3717 31.0663L2.37171 31.0663L2.37045 31.0642C2.1463 30.6952 2.24632 30.241 2.58031 29.9843ZM22.3041 6.15H22.0879L22.0567 6.36395L21.2452 11.9332C18.611 12.5045 16.2779 13.8709 14.5492 15.7588L9.26328 13.5395L9.06252 13.4552L8.95147 13.6425L7.25556 16.5025L7.13849 16.6999L7.32523 16.8334L11.9449 20.1351C11.1031 22.653 11.1028 25.3666 11.9445 27.8653L7.30246 31.1887L7.11597 31.3222L7.23295 31.5195L8.92885 34.3795L9.03958 34.5662L9.23999 34.4828L14.5724 32.2624C16.2986 34.1282 18.6093 35.4943 21.2227 36.0459L22.0341 41.6359L22.0652 41.85H22.2815H25.7185H25.9347L25.9659 41.636L26.7774 36.0665C29.3902 35.4948 31.701 34.1286 33.4276 32.2624L38.76 34.4828L38.9604 34.5662L39.0711 34.3795L40.767 31.5195L40.8844 31.3216L40.6969 31.1883L36.0553 27.8865C36.8971 25.3679 36.8971 22.6536 36.0551 20.1351L40.6748 16.8334L40.8615 16.6999L40.7444 16.5025L39.0485 13.6425L38.9375 13.4552L38.7367 13.5395L33.4508 15.7588C31.7225 13.8714 29.3895 12.5051 26.7547 11.9538L25.9433 6.36409L25.9122 6.15H25.6959H22.3041Z" fill="#9F9F9F" stroke="white" stroke-width="0.5"/>
</svg>
