<svg width="48" height="48" viewBox="0 0 48 48" fill="none" xmlns="http://www.w3.org/2000/svg">
<path d="M12 29.5L9 31V31.5L12.5 30L12 29.5Z" fill="#FDC23E"/>
<path d="M17 21C13 21 12 24.3333 12 26C12 28.2247 13.0311 29.5214 14.2331 30.2342L17 25H22C21.817 23.2466 20.6309 21 17 21Z" fill="#FDC23E"/>
<path d="M12 23L9.5 21.5L9 22L12 23.5V23Z" fill="#FDC23E"/>
<path d="M11 26.5H9V27H11V26.5Z" fill="#FDC23E"/>
<path d="M14.2331 21L13 19L12.5 19.5L13.5 21H14.2331Z" fill="#FDC23E"/>
<path d="M17 20.5V17.5H17.5V20.5H17Z" fill="#FDC23E"/>
<path d="M20 21L21 19.5L21.5 20L20.5 21.5L20 21Z" fill="#FDC23E"/>
<path d="M22.5 23L25 21.5L25.5 22L22.5 23.5V23Z" fill="#FDC23E"/>
<path d="M32.5 41L40 27L39 26M32.5 41H11L10 40M32.5 41L31.5 40M39 26L38.6415 26.6691M39 26H22H18H17.5L10 40M10 40H10.5M31.5 40H10.5M31.5 40L31.7094 39.6092M10.5 40L10.7052 39.6092M38.6415 26.6691H17.5L10.7052 39.6092M38.6415 26.6691L31.7094 39.6092M10.7052 39.6092H31.7094M32 30L33.5 27.5H37.5L36 30H32ZM30.5 33L32 30.5H36L34.5 33H30.5ZM29 36L30.5 33.5H34.5L33 36H29ZM27.5 39L29 36.5H33L31.5 39H27.5ZM27 30L28.5 27.5H32.5L31 30H27ZM25.5 33L27 30.5H31L29.5 33H25.5ZM24 36L25.5 33.5H29.5L28 36H24ZM22.5 39L24 36.5H28L26.5 39H22.5ZM21.5 30L23 27.5H27L25.5 30H21.5ZM20 33L21.5 30.5H25.5L24 33H20ZM18.5 36L20 33.5H24L22.5 36H18.5ZM17 39L18.5 36.5H22.5L21 39H17ZM16.5 30L18 27.5H22L20.5 30H16.5ZM15 33L16.5 30.5H20.5L19 33H15ZM13.5 36L15 33.5H19L17.5 36H13.5ZM12 39L13.5 36.5H17.5L16 39H12ZM20 42H23V45H24V42H28V45H31V46H17V45H20V42ZM17 21C13 21 12 24.3333 12 26C12 28.2247 13.0311 29.5214 14.2331 30.2342L17 25H22C21.817 23.2466 20.6309 21 17 21ZM17 20.5V17.5H17.5V20.5H17ZM20 21L21 19.5L21.5 20L20.5 21.5L20 21ZM22.5 23L25 21.5L25.5 22L22.5 23.5V23ZM14.2331 21L13 19L12.5 19.5L13.5 21H14.2331ZM12 23L9.5 21.5L9 22L12 23.5V23ZM11 26.5H9V27H11V26.5ZM12 29.5L9 31V31.5L12.5 30L12 29.5Z" stroke="#244356" stroke-width="0.2"/>
<path d="M32.5 41L40 27L39 26L38.6415 26.6691L31.7094 39.6092L31.5 40L32.5 41Z" fill="#9F9F9F"/>
<path d="M10 40L11 41H32.5L31.5 40H10.5H10Z" fill="#9F9F9F"/>
<path d="M10.5 40H31.5L31.7094 39.6092H10.7052L10.5 40Z" fill="#9F9F9F"/>
<path d="M17.5 26L10 40H10.5L10.7052 39.6092L17.5 26.6691H38.6415L39 26H22H18H17.5Z" fill="#9F9F9F"/>
<path d="M16.5 30L18 27.5H22L20.5 30H16.5Z" fill="#9F9F9F"/>
<path d="M15 33L16.5 30.5H20.5L19 33H15Z" fill="#9F9F9F"/>
<path d="M13.5 36L15 33.5H19L17.5 36H13.5Z" fill="#9F9F9F"/>
<path d="M12 39L13.5 36.5H17.5L16 39H12Z" fill="#9F9F9F"/>
<path d="M17 39L18.5 36.5H22.5L21 39H17Z" fill="#9F9F9F"/>
<path d="M18.5 36L20 33.5H24L22.5 36H18.5Z" fill="#9F9F9F"/>
<path d="M20 33L21.5 30.5H25.5L24 33H20Z" fill="#9F9F9F"/>
<path d="M21.5 30L23 27.5H27L25.5 30H21.5Z" fill="#9F9F9F"/>
<path d="M27 30L28.5 27.5H32.5L31 30H27Z" fill="#9F9F9F"/>
<path d="M25.5 33L27 30.5H31L29.5 33H25.5Z" fill="#9F9F9F"/>
<path d="M24 36L25.5 33.5H29.5L28 36H24Z" fill="#9F9F9F"/>
<path d="M22.5 39L24 36.5H28L26.5 39H22.5Z" fill="#9F9F9F"/>
<path d="M29 36L30.5 33.5H34.5L33 36H29Z" fill="#9F9F9F"/>
<path d="M30.5 33L32 30.5H36L34.5 33H30.5Z" fill="#9F9F9F"/>
<path d="M32 30L33.5 27.5H37.5L36 30H32Z" fill="#9F9F9F"/>
<path d="M20 42H23V45H24V42H28V45H31V46H17V45H20V42Z" fill="#9F9F9F"/>
<path d="M27.5 39L29 36.5H33L31.5 39H27.5Z" fill="#9F9F9F"/>
<path d="M32.5 41V41.1H32.5599L32.5881 41.0472L32.5 41ZM40 27L40.0881 27.0472L40.1232 26.9818L40.0707 26.9293L40 27ZM39 26L39.0707 25.9293L39.0414 25.9H39V26ZM17.5 26V25.9H17.4401L17.4119 25.9528L17.5 26ZM10 40L9.91185 39.9528L9.8768 40.0182L9.92929 40.0707L10 40ZM11 41L10.9293 41.0707L10.9586 41.1H11V41ZM32 30L31.9143 29.9486L31.8234 30.1H32V30ZM33.5 27.5V27.4H33.4434L33.4143 27.4486L33.5 27.5ZM37.5 27.5L37.5857 27.5514L37.6766 27.4H37.5V27.5ZM36 30V30.1H36.0566L36.0857 30.0514L36 30ZM30.5 33L30.4143 32.9486L30.3234 33.1H30.5V33ZM32 30.5V30.4H31.9434L31.9143 30.4486L32 30.5ZM36 30.5L36.0857 30.5514L36.1766 30.4H36V30.5ZM34.5 33V33.1H34.5566L34.5857 33.0514L34.5 33ZM29 36L28.9143 35.9486L28.8234 36.1H29V36ZM30.5 33.5V33.4H30.4434L30.4143 33.4486L30.5 33.5ZM34.5 33.5L34.5857 33.5514L34.6766 33.4H34.5V33.5ZM33 36V36.1H33.0566L33.0857 36.0514L33 36ZM27.5 39L27.4143 38.9486L27.3234 39.1H27.5V39ZM29 36.5V36.4H28.9434L28.9143 36.4486L29 36.5ZM33 36.5L33.0857 36.5514L33.1766 36.4H33V36.5ZM31.5 39V39.1H31.5566L31.5857 39.0514L31.5 39ZM27 30L26.9143 29.9486L26.8234 30.1H27V30ZM28.5 27.5V27.4H28.4434L28.4143 27.4486L28.5 27.5ZM32.5 27.5L32.5857 27.5514L32.6766 27.4H32.5V27.5ZM31 30V30.1H31.0566L31.0857 30.0514L31 30ZM25.5 33L25.4143 32.9486L25.3234 33.1H25.5V33ZM27 30.5V30.4H26.9434L26.9143 30.4486L27 30.5ZM31 30.5L31.0857 30.5514L31.1766 30.4H31V30.5ZM29.5 33V33.1H29.5566L29.5857 33.0514L29.5 33ZM24 36L23.9143 35.9486L23.8234 36.1H24V36ZM25.5 33.5V33.4H25.4434L25.4143 33.4486L25.5 33.5ZM29.5 33.5L29.5857 33.5514L29.6766 33.4H29.5V33.5ZM28 36V36.1H28.0566L28.0857 36.0514L28 36ZM22.5 39L22.4143 38.9486L22.3234 39.1H22.5V39ZM24 36.5V36.4H23.9434L23.9143 36.4486L24 36.5ZM28 36.5L28.0857 36.5514L28.1766 36.4H28V36.5ZM26.5 39V39.1H26.5566L26.5857 39.0514L26.5 39ZM21.5 30L21.4143 29.9486L21.3234 30.1H21.5V30ZM23 27.5V27.4H22.9434L22.9143 27.4486L23 27.5ZM27 27.5L27.0857 27.5514L27.1766 27.4H27V27.5ZM25.5 30V30.1H25.5566L25.5857 30.0514L25.5 30ZM20 33L19.9143 32.9486L19.8234 33.1H20V33ZM21.5 30.5V30.4H21.4434L21.4143 30.4486L21.5 30.5ZM25.5 30.5L25.5857 30.5514L25.6766 30.4H25.5V30.5ZM24 33V33.1H24.0566L24.0857 33.0514L24 33ZM18.5 36L18.4143 35.9486L18.3234 36.1H18.5V36ZM20 33.5V33.4H19.9434L19.9143 33.4486L20 33.5ZM24 33.5L24.0857 33.5514L24.1766 33.4H24V33.5ZM22.5 36V36.1H22.5566L22.5858 36.0514L22.5 36ZM17 39L16.9143 38.9486L16.8234 39.1H17V39ZM18.5 36.5V36.4H18.4434L18.4143 36.4486L18.5 36.5ZM22.5 36.5L22.5858 36.5514L22.6766 36.4H22.5V36.5ZM21 39V39.1H21.0566L21.0858 39.0514L21 39ZM16.5 30L16.4143 29.9486L16.3234 30.1H16.5V30ZM18 27.5V27.4H17.9434L17.9143 27.4486L18 27.5ZM22 27.5L22.0858 27.5514L22.1766 27.4H22V27.5ZM20.5 30V30.1H20.5566L20.5858 30.0514L20.5 30ZM15 33L14.9143 32.9486L14.8234 33.1H15V33ZM16.5 30.5V30.4H16.4434L16.4143 30.4486L16.5 30.5ZM20.5 30.5L20.5858 30.5514L20.6766 30.4H20.5V30.5ZM19 33V33.1H19.0566L19.0858 33.0514L19 33ZM13.5 36L13.4143 35.9486L13.3234 36.1H13.5V36ZM15 33.5V33.4H14.9434L14.9143 33.4486L15 33.5ZM19 33.5L19.0858 33.5514L19.1766 33.4H19V33.5ZM17.5 36V36.1H17.5566L17.5858 36.0514L17.5 36ZM12 39L11.9143 38.9486L11.8234 39.1H12V39ZM13.5 36.5V36.4H13.4434L13.4143 36.4486L13.5 36.5ZM17.5 36.5L17.5858 36.5514L17.6766 36.4H17.5V36.5ZM16 39V39.1H16.0566L16.0857 39.0514L16 39ZM38.6415 26.6691L38.7297 26.7164L38.7297 26.7164L38.6415 26.6691ZM17.5 26.6691V26.5691H17.4396L17.4115 26.6226L17.5 26.6691ZM20 42V41.9H19.9V42H20ZM23 42H23.1V41.9H23V42ZM23 45H22.9V45.1H23V45ZM24 45V45.1H24.1V45H24ZM24 42V41.9H23.9V42H24ZM28 42H28.1V41.9H28V42ZM28 45H27.9V45.1H28V45ZM31 45H31.1V44.9H31V45ZM31 46V46.1H31.1V46H31ZM17 46H16.9V46.1H17V46ZM17 45V44.9H16.9V45H17ZM20 45V45.1H20.1V45H20ZM14.2331 30.2342L14.1821 30.3202L14.2725 30.3738L14.3216 30.281L14.2331 30.2342ZM17 25V24.9H16.9398L16.9116 24.9533L17 25ZM22 25V25.1H22.111L22.0995 24.9896L22 25ZM17 20.5H16.9V20.6H17V20.5ZM17 17.5V17.4H16.9V17.5H17ZM17.5 17.5H17.6V17.4H17.5V17.5ZM17.5 20.5V20.6H17.6V20.5H17.5ZM20 21L19.9168 20.9445L19.8713 21.0127L19.9293 21.0707L20 21ZM21 19.5L21.0707 19.4293L20.9845 19.343L20.9168 19.4445L21 19.5ZM21.5 20L21.5832 20.0555L21.6287 19.9873L21.5707 19.9293L21.5 20ZM20.5 21.5L20.4293 21.5707L20.5155 21.657L20.5832 21.5555L20.5 21.5ZM22.5 23L22.4486 22.9143L22.4 22.9434V23H22.5ZM25 21.5L25.0707 21.4293L25.0155 21.3741L24.9486 21.4143L25 21.5ZM25.5 22L25.5447 22.0894L25.6688 22.0274L25.5707 21.9293L25.5 22ZM22.5 23.5H22.4V23.6618L22.5447 23.5894L22.5 23.5ZM14.2331 21V21.1H14.4123L14.3183 20.9475L14.2331 21ZM13 19L13.0851 18.9475L13.0187 18.8398L12.9293 18.9293L13 19ZM12.5 19.5L12.4293 19.4293L12.3713 19.4873L12.4168 19.5555L12.5 19.5ZM13.5 21L13.4168 21.0555L13.4465 21.1H13.5V21ZM12 23H12.1V22.9434L12.0514 22.9143L12 23ZM9.5 21.5L9.55145 21.4143L9.4845 21.3741L9.42929 21.4293L9.5 21.5ZM9 22L8.92929 21.9293L8.83118 22.0274L8.95528 22.0894L9 22ZM12 23.5L11.9553 23.5894L12.1 23.6618V23.5H12ZM11 26.5H11.1V26.4H11V26.5ZM9 26.5V26.4H8.9V26.5H9ZM9 27H8.9V27.1H9V27ZM11 27V27.1H11.1V27H11ZM12 29.5L12.0707 29.4293L12.0197 29.3783L11.9553 29.4106L12 29.5ZM9 31L8.95528 30.9106L8.9 30.9382V31H9ZM9 31.5H8.9V31.6517L9.03939 31.5919L9 31.5ZM12.5 30L12.5394 30.0919L12.6752 30.0337L12.5707 29.9293L12.5 30ZM32.5881 41.0472L40.0881 27.0472L39.9119 26.9528L32.4119 40.9528L32.5881 41.0472ZM40.0707 26.9293L39.0707 25.9293L38.9293 26.0707L39.9293 27.0707L40.0707 26.9293ZM17.4119 25.9528L9.91185 39.9528L10.0881 40.0472L17.5881 26.0472L17.4119 25.9528ZM9.92929 40.0707L10.9293 41.0707L11.0707 40.9293L10.0707 39.9293L9.92929 40.0707ZM11 41.1H32.5V40.9H11V41.1ZM31.4293 40.0707L32.4293 41.0707L32.5707 40.9293L31.5707 39.9293L31.4293 40.0707ZM18 25.9H17.5V26.1H18V25.9ZM31.5 39.9H10.5V40.1H31.5V39.9ZM10.5 39.9H10V40.1H10.5V39.9ZM32.0857 30.0514L33.5857 27.5514L33.4143 27.4486L31.9143 29.9486L32.0857 30.0514ZM33.5 27.6H37.5V27.4H33.5V27.6ZM37.4143 27.4486L35.9143 29.9486L36.0857 30.0514L37.5857 27.5514L37.4143 27.4486ZM36 29.9H32V30.1H36V29.9ZM30.5857 33.0514L32.0857 30.5514L31.9143 30.4486L30.4143 32.9486L30.5857 33.0514ZM32 30.6H36V30.4H32V30.6ZM35.9143 30.4486L34.4143 32.9486L34.5857 33.0514L36.0857 30.5514L35.9143 30.4486ZM34.5 32.9H30.5V33.1H34.5V32.9ZM29.0857 36.0514L30.5857 33.5514L30.4143 33.4486L28.9143 35.9486L29.0857 36.0514ZM30.5 33.6H34.5V33.4H30.5V33.6ZM34.4143 33.4486L32.9143 35.9486L33.0857 36.0514L34.5857 33.5514L34.4143 33.4486ZM33 35.9H29V36.1H33V35.9ZM27.5857 39.0514L29.0857 36.5514L28.9143 36.4486L27.4143 38.9486L27.5857 39.0514ZM29 36.6H33V36.4H29V36.6ZM32.9143 36.4486L31.4143 38.9486L31.5857 39.0514L33.0857 36.5514L32.9143 36.4486ZM31.5 38.9H27.5V39.1H31.5V38.9ZM27.0857 30.0514L28.5857 27.5514L28.4143 27.4486L26.9143 29.9486L27.0857 30.0514ZM28.5 27.6H32.5V27.4H28.5V27.6ZM32.4143 27.4486L30.9143 29.9486L31.0857 30.0514L32.5857 27.5514L32.4143 27.4486ZM31 29.9H27V30.1H31V29.9ZM25.5857 33.0514L27.0857 30.5514L26.9143 30.4486L25.4143 32.9486L25.5857 33.0514ZM27 30.6H31V30.4H27V30.6ZM30.9143 30.4486L29.4143 32.9486L29.5857 33.0514L31.0857 30.5514L30.9143 30.4486ZM29.5 32.9H25.5V33.1H29.5V32.9ZM24.0857 36.0514L25.5857 33.5514L25.4143 33.4486L23.9143 35.9486L24.0857 36.0514ZM25.5 33.6H29.5V33.4H25.5V33.6ZM29.4143 33.4486L27.9143 35.9486L28.0857 36.0514L29.5857 33.5514L29.4143 33.4486ZM28 35.9H24V36.1H28V35.9ZM22.5858 39.0514L24.0857 36.5514L23.9143 36.4486L22.4143 38.9486L22.5858 39.0514ZM24 36.6H28V36.4H24V36.6ZM27.9143 36.4486L26.4143 38.9486L26.5857 39.0514L28.0857 36.5514L27.9143 36.4486ZM26.5 38.9H22.5V39.1H26.5V38.9ZM21.5858 30.0514L23.0858 27.5514L22.9143 27.4486L21.4143 29.9486L21.5858 30.0514ZM23 27.6H27V27.4H23V27.6ZM26.9143 27.4486L25.4143 29.9486L25.5857 30.0514L27.0857 27.5514L26.9143 27.4486ZM25.5 29.9H21.5V30.1H25.5V29.9ZM20.0858 33.0514L21.5858 30.5514L21.4143 30.4486L19.9143 32.9486L20.0858 33.0514ZM21.5 30.6H25.5V30.4H21.5V30.6ZM25.4143 30.4486L23.9143 32.9486L24.0857 33.0514L25.5857 30.5514L25.4143 30.4486ZM24 32.9H20V33.1H24V32.9ZM18.5858 36.0514L20.0858 33.5514L19.9143 33.4486L18.4143 35.9486L18.5858 36.0514ZM20 33.6H24V33.4H20V33.6ZM23.9143 33.4486L22.4143 35.9486L22.5858 36.0514L24.0857 33.5514L23.9143 33.4486ZM22.5 35.9H18.5V36.1H22.5V35.9ZM17.0858 39.0514L18.5858 36.5514L18.4143 36.4486L16.9143 38.9486L17.0858 39.0514ZM18.5 36.6H22.5V36.4H18.5V36.6ZM22.4143 36.4486L20.9143 38.9486L21.0858 39.0514L22.5858 36.5514L22.4143 36.4486ZM21 38.9H17V39.1H21V38.9ZM16.5857 30.0514L18.0858 27.5514L17.9143 27.4486L16.4143 29.9486L16.5857 30.0514ZM18 27.6H22V27.4H18V27.6ZM21.9143 27.4486L20.4143 29.9486L20.5858 30.0514L22.0858 27.5514L21.9143 27.4486ZM20.5 29.9H16.5V30.1H20.5V29.9ZM15.0857 33.0514L16.5857 30.5514L16.4143 30.4486L14.9143 32.9486L15.0857 33.0514ZM16.5 30.6H20.5V30.4H16.5V30.6ZM20.4143 30.4486L18.9143 32.9486L19.0858 33.0514L20.5858 30.5514L20.4143 30.4486ZM19 32.9H15V33.1H19V32.9ZM13.5857 36.0514L15.0857 33.5514L14.9143 33.4486L13.4143 35.9486L13.5857 36.0514ZM15 33.6H19V33.4H15V33.6ZM18.9143 33.4486L17.4143 35.9486L17.5858 36.0514L19.0858 33.5514L18.9143 33.4486ZM17.5 35.9H13.5V36.1H17.5V35.9ZM12.0857 39.0514L13.5857 36.5514L13.4143 36.4486L11.9143 38.9486L12.0857 39.0514ZM13.5 36.6H17.5V36.4H13.5V36.6ZM17.4143 36.4486L15.9143 38.9486L16.0857 39.0514L17.5858 36.5514L17.4143 36.4486ZM16 38.9H12V39.1H16V38.9ZM38.7297 26.7164L39.0881 26.0472L38.9119 25.9528L38.5534 26.6219L38.7297 26.7164ZM38.6415 26.5691H17.5V26.7691H38.6415V26.5691ZM20 42.1H23V41.9H20V42.1ZM22.9 42V45H23.1V42H22.9ZM23 45.1H24V44.9H23V45.1ZM24.1 45V42H23.9V45H24.1ZM24 42.1H28V41.9H24V42.1ZM27.9 42V45H28.1V42H27.9ZM28 45.1H31V44.9H28V45.1ZM30.9 45V46H31.1V45H30.9ZM31 45.9H17V46.1H31V45.9ZM17.1 46V45H16.9V46H17.1ZM17 45.1H20V44.9H17V45.1ZM20.1 45V42H19.9V45H20.1ZM17 20.9C14.9674 20.9 13.6874 21.7492 12.9188 22.8166C12.154 23.8789 11.9 25.1507 11.9 26H12.1C12.1 25.1827 12.346 23.9544 13.0812 22.9334C13.8126 21.9175 15.0326 21.1 17 21.1V20.9ZM39 25.9H22V26.1H39V25.9ZM22 25.9H18V26.1H22V25.9ZM11.9 26C11.9 28.2624 12.9518 29.5907 14.1821 30.3202L14.2841 30.1482C13.1104 29.4522 12.1 28.1871 12.1 26H11.9ZM14.3216 30.281L17.0884 25.0467L16.9116 24.9533L14.1447 30.1875L14.3216 30.281ZM17 21.1C18.7934 21.1 19.9705 21.654 20.7219 22.4128C21.4753 23.1735 21.8108 24.1501 21.9005 25.0104L22.0995 24.9896C22.0063 24.0964 21.6572 23.073 20.864 22.2721C20.0689 21.4692 18.8375 20.9 17 20.9V21.1ZM17 25.1H22V24.9H17V25.1ZM17.4115 26.6226L10.6167 39.5627L10.7938 39.6557L17.5885 26.7156L17.4115 26.6226ZM10.6167 39.5627L10.4115 39.9535L10.5885 40.0465L10.7938 39.6557L10.6167 39.5627ZM31.5881 40.0472L31.7975 39.6564L31.6212 39.5619L31.4119 39.9528L31.5881 40.0472ZM31.7975 39.6564L38.7297 26.7164L38.5534 26.6219L31.6212 39.5619L31.7975 39.6564ZM10.7052 39.7092H31.7094V39.5092H10.7052V39.7092ZM17.1 20.5V17.5H16.9V20.5H17.1ZM17 17.6H17.5V17.4H17V17.6ZM17.4 17.5V20.5H17.6V17.5H17.4ZM17.5 20.4H17V20.6H17.5V20.4ZM20.0832 21.0555L21.0832 19.5555L20.9168 19.4445L19.9168 20.9445L20.0832 21.0555ZM20.9293 19.5707L21.4293 20.0707L21.5707 19.9293L21.0707 19.4293L20.9293 19.5707ZM21.4168 19.9445L20.4168 21.4445L20.5832 21.5555L21.5832 20.0555L21.4168 19.9445ZM20.5707 21.4293L20.0707 20.9293L19.9293 21.0707L20.4293 21.5707L20.5707 21.4293ZM22.5515 23.0857L25.0514 21.5857L24.9486 21.4143L22.4486 22.9143L22.5515 23.0857ZM24.9293 21.5707L25.4293 22.0707L25.5707 21.9293L25.0707 21.4293L24.9293 21.5707ZM25.4553 21.9106L22.4553 23.4106L22.5447 23.5894L25.5447 22.0894L25.4553 21.9106ZM22.6 23.5V23H22.4V23.5H22.6ZM14.3183 20.9475L13.0851 18.9475L12.9149 19.0525L14.148 21.0525L14.3183 20.9475ZM12.9293 18.9293L12.4293 19.4293L12.5707 19.5707L13.0707 19.0707L12.9293 18.9293ZM12.4168 19.5555L13.4168 21.0555L13.5832 20.9445L12.5832 19.4445L12.4168 19.5555ZM13.5 21.1H14.2331V20.9H13.5V21.1ZM12.0514 22.9143L9.55145 21.4143L9.44855 21.5857L11.9486 23.0857L12.0514 22.9143ZM9.42929 21.4293L8.92929 21.9293L9.07071 22.0707L9.57071 21.5707L9.42929 21.4293ZM8.95528 22.0894L11.9553 23.5894L12.0447 23.4106L9.04472 21.9106L8.95528 22.0894ZM12.1 23.5V23H11.9V23.5H12.1ZM11 26.4H9V26.6H11V26.4ZM8.9 26.5V27H9.1V26.5H8.9ZM9 27.1H11V26.9H9V27.1ZM11.1 27V26.5H10.9V27H11.1ZM11.9553 29.4106L8.95528 30.9106L9.04472 31.0894L12.0447 29.5894L11.9553 29.4106ZM8.9 31V31.5H9.1V31H8.9ZM9.03939 31.5919L12.5394 30.0919L12.4606 29.9081L8.96061 31.4081L9.03939 31.5919ZM12.5707 29.9293L12.0707 29.4293L11.9293 29.5707L12.4293 30.0707L12.5707 29.9293Z" fill="#244356"/>
<path d="M32.5 41L40 27L39 26M32.5 41H11L10 40M32.5 41L31.5 40M39 26L38.6415 26.6691M39 26H22H18H17.5L10 40M10 40H10.5M31.5 40H10.5M31.5 40L31.7094 39.6092M10.5 40L10.7052 39.6092M38.6415 26.6691H17.5L10.7052 39.6092M38.6415 26.6691L31.7094 39.6092M10.7052 39.6092H31.7094M32 30L33.5 27.5H37.5L36 30H32ZM30.5 33L32 30.5H36L34.5 33H30.5ZM29 36L30.5 33.5H34.5L33 36H29ZM27.5 39L29 36.5H33L31.5 39H27.5ZM27 30L28.5 27.5H32.5L31 30H27ZM25.5 33L27 30.5H31L29.5 33H25.5ZM24 36L25.5 33.5H29.5L28 36H24ZM22.5 39L24 36.5H28L26.5 39H22.5ZM21.5 30L23 27.5H27L25.5 30H21.5ZM20 33L21.5 30.5H25.5L24 33H20ZM18.5 36L20 33.5H24L22.5 36H18.5ZM17 39L18.5 36.5H22.5L21 39H17ZM16.5 30L18 27.5H22L20.5 30H16.5ZM15 33L16.5 30.5H20.5L19 33H15ZM13.5 36L15 33.5H19L17.5 36H13.5ZM12 39L13.5 36.5H17.5L16 39H12ZM20 42H23V45H24V42H28V45H31V46H17V45H20V42ZM17 21C13 21 12 24.3333 12 26C12 28.2247 13.0311 29.5214 14.2331 30.2342L17 25H22C21.817 23.2466 20.6309 21 17 21ZM17 20.5V17.5H17.5V20.5H17ZM20 21L21 19.5L21.5 20L20.5 21.5L20 21ZM22.5 23L25 21.5L25.5 22L22.5 23.5V23ZM14.2331 21L13 19L12.5 19.5L13.5 21H14.2331ZM12 23L9.5 21.5L9 22L12 23.5V23ZM11 26.5H9V27H11V26.5ZM12 29.5L9 31V31.5L12.5 30L12 29.5Z" stroke="#244356" stroke-width="0.2"/>
</svg>
