<svg width="48" height="48" viewBox="0 0 48 48" fill="none" xmlns="http://www.w3.org/2000/svg">
<path fill-rule="evenodd" clip-rule="evenodd" d="M2 38.1027H6.34C7.16 35.7927 9.38 34.154 12 34.154C12.4876 34.154 12.9611 34.2123 13.4142 34.3217L19.5 23L23 25L17 36.5C17.5008 37.1712 17.78 38.4975 17.78 38.4975C17.92 38.9911 18 39.5242 18 40.077C18 41.6479 17.3679 43.1544 16.2426 44.2652C15.1174 45.376 13.5913 46 12 46C9.38 46 7.16 44.3613 6.34 42.0513H2V38.1027ZM10.5858 38.6809C10.9609 38.3107 11.4696 38.1027 12 38.1027C12.5304 38.1027 13.0391 38.3107 13.4142 38.6809C13.7893 39.0512 14 39.5534 14 40.077C14 40.6006 13.7893 41.1028 13.4142 41.4731C13.0391 41.8433 12.5304 42.0513 12 42.0513C11.4696 42.0513 10.9609 41.8433 10.5858 41.4731C10.2107 41.1028 10 40.6006 10 40.077C10 39.5534 10.2107 39.0512 10.5858 38.6809Z" fill="#FDC23E"/>
<path fill-rule="evenodd" clip-rule="evenodd" d="M46 38.1027V42.0513H41.66C40.84 44.3613 38.62 46 36 46C34.4087 46 32.8826 45.376 31.7574 44.2652C30.6321 43.1544 30 41.6479 30 40.077C30 38.5061 30.6321 36.9996 31.7574 35.8888C32.8826 34.778 34.4087 34.154 36 34.154C38.62 34.154 40.84 35.7927 41.66 38.1027H46ZM34.5858 38.6809C34.9609 38.3107 35.4696 38.1027 36 38.1027C36.5304 38.1027 37.0391 38.3107 37.4142 38.6809C37.7893 39.0512 38 39.5534 38 40.077C38 40.6006 37.7893 41.1028 37.4142 41.4731C37.0391 41.8433 36.5304 42.0513 36 42.0513C35.4696 42.0513 34.9609 41.8433 34.5858 41.4731C34.2107 41.1028 34 40.6006 34 40.077C34 39.5534 34.2107 39.0512 34.5858 38.6809Z" fill="#9F9F9F"/>
<path fill-rule="evenodd" clip-rule="evenodd" d="M22 2L22.0158 13.6398C20.8578 14.046 19.8536 14.8003 19.1409 15.7994C18.4282 16.7985 18.0418 17.9935 18.0346 19.2207C18.0274 20.4479 18.3998 21.6474 19.1008 22.6547C19.8017 23.6621 20.7969 24.4282 21.9501 24.8479C21.9501 24.8479 23.1458 25.1576 23.9279 25.1627C24.7132 25.1678 25.9176 24.8712 25.9176 24.8712C27.0757 24.465 28.0798 23.7106 28.7925 22.7115C29.5052 21.7125 29.8917 20.5175 29.8989 19.2903C29.906 18.063 29.5337 16.8636 28.8327 15.8562C28.1318 14.8489 27.1365 14.0828 25.9833 13.663L25.9675 2.02326L22 2ZM25.6098 20.3573C25.8296 20.0324 25.9482 19.6495 25.9505 19.2572C25.9536 18.7311 25.7476 18.2253 25.3777 17.8511C25.0079 17.4769 24.5045 17.2649 23.9784 17.2618C23.5861 17.2595 23.2019 17.3736 22.8744 17.5897C22.5468 17.8057 22.2908 18.1141 22.1385 18.4757C21.9862 18.8373 21.9446 19.2359 22.0189 19.6212C22.0932 20.0064 22.28 20.361 22.5559 20.6401C22.8317 20.9191 23.184 21.1101 23.5684 21.1889C23.9527 21.2677 24.3518 21.2308 24.7152 21.0828C25.0786 20.9347 25.3899 20.6823 25.6098 20.3573Z" fill="#FDC23E"/>
</svg>
