<svg width="48" height="48" viewBox="0 0 48 48" fill="none" xmlns="http://www.w3.org/2000/svg">
<path fill-rule="evenodd" clip-rule="evenodd" d="M46 38.1027V42.0513H41.66C40.84 44.3613 38.62 46 36 46C34.4087 46 32.8826 45.376 31.7574 44.2652C31.1185 43.6346 30.6387 42.8764 30.3431 42.0513C30.1181 41.4231 30 40.7561 30 40.077C30 39.2794 30.163 38.4983 30.4707 37.7772C30.7691 37.0782 31.2035 36.4356 31.7574 35.8888C32.8826 34.778 34.4087 34.154 36 34.154C38.62 34.154 40.84 35.7927 41.66 38.1027H46ZM34.5858 38.6809C34.9609 38.3107 35.4696 38.1027 36 38.1027C36.5304 38.1027 37.0391 38.3107 37.4142 38.6809C37.7893 39.0512 38 39.5534 38 40.077C38 40.6006 37.7893 41.1028 37.4142 41.4731C37.0391 41.8433 36.5304 42.0513 36 42.0513C35.4696 42.0513 34.9609 41.8433 34.5858 41.4731C34.2107 41.1028 34 40.6006 34 40.077C34 39.5534 34.2107 39.0512 34.5858 38.6809Z" fill="#9F9F9F"/>
<path d="M13.4142 34.3201C14.9792 34.6729 16.8356 35.6458 17.62 37.7772L26 24L21.5 21L13.4142 34.3201Z" fill="#9F9F9F"/>
<path fill-rule="evenodd" clip-rule="evenodd" d="M6.34 38.1027H2V42.0513H6.34C7.16 44.3613 9.38 46 12 46C13.5913 46 15.1174 45.376 16.2426 44.2652C16.8815 43.6346 17.3613 42.8764 17.6569 42.0513C17.8819 41.4231 18 40.7561 18 40.077C18 39.1914 17.8603 38.43 17.62 37.7772C16.8356 35.6458 14.9792 34.6729 13.4142 34.3201C12.8939 34.2027 12.4058 34.154 12 34.154C9.38 34.154 7.16 35.7927 6.34 38.1027ZM10.5858 38.6809C10.9609 38.3107 11.4696 38.1027 12 38.1027C12.5304 38.1027 13.0391 38.3107 13.4142 38.6809C13.7893 39.0512 14 39.5534 14 40.077C14 40.6006 13.7893 41.1028 13.4142 41.4731C13.0391 41.8433 12.5304 42.0513 12 42.0513C11.4696 42.0513 10.9609 41.8433 10.5858 41.4731C10.2107 41.1028 10 40.6006 10 40.077C10 39.5534 10.2107 39.0512 10.5858 38.6809Z" fill="#9F9F9F"/>
</svg>
