<svg width="48" height="48" viewBox="0 0 48 48" fill="none" xmlns="http://www.w3.org/2000/svg">
<path d="M46 10.2353C44.3805 10.9765 42.6348 11.4635 40.826 11.6965C42.6769 10.5741 44.1071 8.79529 44.7801 6.65647C43.0344 7.71529 41.0994 8.45647 39.0593 8.88C37.3977 7.05882 35.0631 6 32.413 6C27.4704 6 23.4321 10.0659 23.4321 15.0847C23.4321 15.8047 23.5163 16.5035 23.6635 17.16C16.1759 16.7788 9.50861 13.1576 5.07075 7.67294C4.29254 9.00706 3.85086 10.5741 3.85086 12.2259C3.85086 15.3812 5.4283 18.1765 7.86807 19.7647C6.37476 19.7647 4.98662 19.3412 3.76673 18.7059C3.76673 18.7059 3.76673 18.7059 3.76673 18.7694C3.76673 23.1741 6.87954 26.8588 11.0019 27.6847C10.2447 27.8965 9.44551 28.0024 8.62524 28.0024C8.05736 28.0024 7.48948 27.9388 6.94264 27.8329C8.07839 31.4118 11.3805 34.08 15.3556 34.1435C12.2849 36.6 8.39388 38.04 4.14532 38.04C3.43021 38.04 2.71511 37.9976 2 37.9129C5.99618 40.4965 10.7495 42 15.8394 42C32.413 42 41.5201 28.1506 41.5201 16.1435C41.5201 15.7412 41.5201 15.36 41.499 14.9576C43.2658 13.6871 44.7801 12.0776 46 10.2353Z" fill="white"/>
</svg>
